<svg width="117.705" height="90.204" viewBox="0 0 117.705 90.204" xmlns="http://www.w3.org/2000/svg"><g id="svgGroup" stroke-linecap="round" fill-rule="nonzero" font-size="9pt" stroke="#000" stroke-width="0" fill="#000" style="stroke:#000;stroke-width:0;fill:#000"><path d="M 84.602 52.503 A 25.128 25.128 0 0 0 84.661 52.521 A 26.424 26.424 0 0 0 92.602 53.703 A 1.937 1.937 0 0 0 92.677 53.701 Q 92.863 53.694 93.152 53.653 Q 93.393 53.618 93.563 53.608 A 2.227 2.227 0 0 1 93.702 53.603 L 93.702 76.503 A 15.917 15.917 0 0 1 93.701 76.703 A 13.108 13.108 0 0 1 89.652 86.203 Q 85.602 90.203 80.002 90.203 L 13.702 90.203 Q 8.102 90.203 4.052 86.203 A 15.867 15.867 0 0 1 3.918 86.07 A 13.11 13.11 0 0 1 0.002 76.503 L 0.002 19.403 A 15.917 15.917 0 0 1 0.003 19.203 A 13.108 13.108 0 0 1 4.052 9.703 Q 8.102 5.703 13.702 5.703 L 71.702 5.703 A 25.395 25.395 0 0 0 68.961 9.058 A 30.388 30.388 0 0 0 65.902 14.803 L 13.702 14.803 A 5.312 5.312 0 0 0 13.643 14.803 A 4.425 4.425 0 0 0 10.452 16.153 A 5.392 5.392 0 0 0 10.41 16.195 A 4.424 4.424 0 0 0 9.102 19.403 L 9.102 76.503 A 5.312 5.312 0 0 0 9.102 76.562 A 4.425 4.425 0 0 0 10.452 79.753 A 5.392 5.392 0 0 0 10.494 79.795 A 4.424 4.424 0 0 0 13.702 81.103 L 80.002 81.103 A 5.312 5.312 0 0 0 80.061 81.102 A 4.425 4.425 0 0 0 83.252 79.753 A 5.392 5.392 0 0 0 83.294 79.71 A 4.424 4.424 0 0 0 84.602 76.503 L 84.602 52.503 Z M 110.352 42.853 A 29.188 29.188 0 0 1 110.121 43.081 A 24.156 24.156 0 0 1 92.602 50.203 Q 82.202 50.203 74.802 42.853 A 29.283 29.283 0 0 1 74.572 42.622 A 24.072 24.072 0 0 1 67.402 25.103 A 29.031 29.031 0 0 1 67.404 24.779 A 24.075 24.075 0 0 1 74.802 7.353 A 29.485 29.485 0 0 1 75.034 7.125 A 24.319 24.319 0 0 1 92.602 0.003 Q 103.002 0.003 110.352 7.353 A 29.188 29.188 0 0 1 110.58 7.583 A 24.156 24.156 0 0 1 117.702 25.103 Q 117.702 35.503 110.352 42.853 Z M 105.552 12.153 A 21.16 21.16 0 0 0 105.384 11.987 A 17.62 17.62 0 0 0 92.602 6.803 Q 85.002 6.803 79.652 12.153 A 21.16 21.16 0 0 0 79.486 12.321 A 17.62 17.62 0 0 0 74.302 25.103 Q 74.302 32.703 79.652 38.053 A 21.16 21.16 0 0 0 79.82 38.219 A 17.62 17.62 0 0 0 92.602 43.403 Q 100.202 43.403 105.552 38.053 A 21.16 21.16 0 0 0 105.718 37.885 A 17.62 17.62 0 0 0 110.902 25.103 Q 110.902 17.503 105.552 12.153 Z M 96.002 14.803 L 96.002 21.703 L 102.902 21.703 A 2.112 2.112 0 0 1 104.431 22.333 A 2.638 2.638 0 0 1 104.452 22.353 A 2.195 2.195 0 0 1 105.096 23.818 A 2.933 2.933 0 0 1 105.102 24.003 L 105.102 26.203 A 2.517 2.517 0 0 1 104.973 27.024 A 2.143 2.143 0 0 1 104.452 27.853 A 2.189 2.189 0 0 1 103.641 28.378 A 2.169 2.169 0 0 1 102.902 28.503 L 96.002 28.503 L 96.002 35.403 A 2.272 2.272 0 0 1 95.397 36.953 A 2.932 2.932 0 0 1 95.352 37.003 A 2.138 2.138 0 0 1 93.795 37.701 A 2.789 2.789 0 0 1 93.702 37.703 L 91.402 37.703 A 2.147 2.147 0 0 1 89.98 37.167 A 2.886 2.886 0 0 1 89.802 37.003 Q 89.102 36.303 89.102 35.403 L 89.102 28.503 L 82.302 28.503 A 2.517 2.517 0 0 1 81.481 28.374 A 2.143 2.143 0 0 1 80.652 27.853 A 2.195 2.195 0 0 1 80.008 26.387 A 2.933 2.933 0 0 1 80.002 26.203 L 80.002 24.003 A 2.517 2.517 0 0 1 80.131 23.182 A 2.143 2.143 0 0 1 80.652 22.353 A 2.195 2.195 0 0 1 82.117 21.709 A 2.933 2.933 0 0 1 82.302 21.703 L 89.102 21.703 L 89.102 14.803 A 2.147 2.147 0 0 1 89.638 13.381 A 2.886 2.886 0 0 1 89.802 13.203 Q 90.502 12.503 91.402 12.503 L 93.702 12.503 A 2.336 2.336 0 0 1 94.562 12.657 A 2.134 2.134 0 0 1 95.352 13.203 Q 96.002 13.903 96.002 14.803 Z M 27.602 58.603 L 32.102 57.203 Q 33.225 57.203 33.56 58.079 A 1.782 1.782 0 0 1 33.602 58.203 Q 33.678 58.432 33.843 58.809 A 18.526 18.526 0 0 0 33.952 59.053 Q 34.193 59.584 35.134 60.675 A 26.14 26.14 0 0 0 35.202 60.753 Q 36.202 61.903 37.552 62.803 Q 38.902 63.703 41.402 64.403 A 18.765 18.765 0 0 0 44.722 65.004 A 23.457 23.457 0 0 0 46.902 65.103 A 20.896 20.896 0 0 0 49.516 64.944 A 18.607 18.607 0 0 0 50.152 64.853 A 20.79 20.79 0 0 0 51.571 64.575 Q 52.261 64.414 52.863 64.216 A 12.749 12.749 0 0 0 52.902 64.203 A 18.004 18.004 0 0 0 54.324 63.664 A 14.961 14.961 0 0 0 55.102 63.303 Q 56.035 62.836 56.708 62.326 A 7.218 7.218 0 0 0 56.802 62.253 A 23.212 23.212 0 0 0 57.796 61.428 A 20.286 20.286 0 0 0 58.102 61.153 A 6.686 6.686 0 0 0 58.609 60.637 Q 58.85 60.363 59.028 60.089 A 4.072 4.072 0 0 0 59.052 60.053 A 188.872 188.872 0 0 0 59.3 59.661 Q 59.398 59.507 59.486 59.367 A 99.833 99.833 0 0 0 59.652 59.103 Q 59.902 58.703 60.002 58.503 L 60.102 58.203 A 1.424 1.424 0 0 1 60.412 57.636 Q 60.812 57.203 61.602 57.203 L 62.102 57.203 L 66.102 58.603 A 1.063 1.063 0 0 1 66.797 59.04 A 1.773 1.773 0 0 1 67.002 59.403 Q 67.249 59.815 67.157 60.364 A 2.215 2.215 0 0 1 67.102 60.603 A 111.767 111.767 0 0 0 66.911 61.034 Q 66.639 61.653 66.452 62.103 Q 66.218 62.665 64.754 64.676 A 94.336 94.336 0 0 1 64.552 64.953 A 17.244 17.244 0 0 1 62.527 67.27 A 14.131 14.131 0 0 1 60.902 68.603 A 14.559 14.559 0 0 1 59.33 69.548 Q 57.633 70.44 55.19 71.289 A 47.547 47.547 0 0 1 55.152 71.303 A 23.597 23.597 0 0 1 49.641 72.476 A 28.887 28.887 0 0 1 46.902 72.603 A 27.129 27.129 0 0 1 41.822 72.145 A 22.529 22.529 0 0 1 38.652 71.303 A 37.323 37.323 0 0 1 36.474 70.476 Q 34.261 69.55 32.852 68.553 A 16.87 16.87 0 0 1 29.624 65.544 A 19.295 19.295 0 0 1 29.152 64.953 Q 27.832 63.233 27.376 62.473 A 3.493 3.493 0 0 1 27.202 62.153 A 11.97 11.97 0 0 1 26.939 61.536 Q 26.771 61.109 26.602 60.603 A 2.167 2.167 0 0 1 26.54 60.318 Q 26.465 59.798 26.702 59.403 Q 27.002 58.703 27.602 58.603 Z M 65.102 32.003 L 65.102 43.403 A 2.272 2.272 0 0 1 64.497 44.953 A 2.932 2.932 0 0 1 64.452 45.003 A 2.256 2.256 0 0 1 63.811 45.493 A 2 2 0 0 1 62.902 45.703 L 58.302 45.703 A 2.336 2.336 0 0 1 57.441 45.549 A 2.134 2.134 0 0 1 56.652 45.003 Q 56.002 44.303 56.002 43.403 L 56.002 32.003 A 2.517 2.517 0 0 1 56.131 31.182 A 2.143 2.143 0 0 1 56.652 30.353 A 2.195 2.195 0 0 1 58.117 29.709 A 2.933 2.933 0 0 1 58.302 29.703 L 62.902 29.703 A 2.112 2.112 0 0 1 64.431 30.333 A 2.638 2.638 0 0 1 64.452 30.353 A 2.195 2.195 0 0 1 65.096 31.818 A 2.933 2.933 0 0 1 65.102 32.003 Z M 37.702 32.003 L 37.702 43.403 A 2.272 2.272 0 0 1 37.097 44.953 A 2.932 2.932 0 0 1 37.052 45.003 A 2.138 2.138 0 0 1 35.495 45.701 A 2.789 2.789 0 0 1 35.402 45.703 L 30.902 45.703 A 2.336 2.336 0 0 1 30.041 45.549 A 2.134 2.134 0 0 1 29.252 45.003 Q 28.602 44.303 28.602 43.403 L 28.602 32.003 A 2.517 2.517 0 0 1 28.731 31.182 A 2.143 2.143 0 0 1 29.252 30.353 A 2.195 2.195 0 0 1 30.717 29.709 A 2.933 2.933 0 0 1 30.902 29.703 L 35.402 29.703 A 2.517 2.517 0 0 1 36.223 29.832 A 2.143 2.143 0 0 1 37.052 30.353 A 2.195 2.195 0 0 1 37.696 31.818 A 2.933 2.933 0 0 1 37.702 32.003 Z" vector-effect="non-scaling-stroke"/></g></svg>