<svg width="88.8" height="84.627" viewBox="0 0 88.8 84.627" xmlns="http://www.w3.org/2000/svg"><g id="svgGroup" stroke-linecap="round" fill-rule="nonzero" font-size="9pt" stroke="#000" stroke-width="0" fill="#000" style="stroke:#000;stroke-width:0;fill:#000"><path d="M 46.2 83.714 L 1.5 45.514 A 4.454 4.454 0 0 1 0.452 44.218 A 4.04 4.04 0 0 1 0 42.314 Q 0 40.414 1.5 39.114 L 46.2 0.914 A 6.079 6.079 0 0 1 46.797 0.482 Q 47.565 0 48.202 0 A 1.54 1.54 0 0 1 48.9 0.164 Q 50 0.714 50 2.714 L 50 23.614 L 83.8 23.614 A 4.737 4.737 0 0 1 87.259 25.021 A 5.686 5.686 0 0 1 87.35 25.114 Q 88.8 26.614 88.8 28.614 L 88.8 56.014 Q 88.8 58.014 87.35 59.514 A 4.734 4.734 0 0 1 83.931 61.012 A 5.797 5.797 0 0 1 83.8 61.014 L 50 61.014 L 50 81.914 Q 50 83.741 49.082 84.358 A 1.644 1.644 0 0 1 48.9 84.464 A 1.54 1.54 0 0 1 48.202 84.627 Q 47.325 84.627 46.2 83.714 Z" vector-effect="non-scaling-stroke"/></g></svg>