<svg width="88.9" height="84.627" viewBox="0 0 88.9 84.627" xmlns="http://www.w3.org/2000/svg"><g id="svgGroup" stroke-linecap="round" fill-rule="nonzero" font-size="9pt" stroke="#000" stroke-width="0" fill="#000" style="stroke:#000;stroke-width:0;fill:#000"><path d="M 42.7 0.914 L 87.3 39.114 A 4.644 4.644 0 0 1 88.306 40.221 A 3.821 3.821 0 0 1 88.9 42.314 A 3.894 3.894 0 0 1 87.609 45.243 A 5.417 5.417 0 0 1 87.3 45.514 L 42.7 83.714 Q 41.576 84.627 40.674 84.627 A 1.656 1.656 0 0 1 39.95 84.464 Q 39.046 84.031 38.853 82.703 A 5.495 5.495 0 0 1 38.8 81.914 L 38.8 61.014 L 5 61.014 Q 3 61.014 1.5 59.514 A 5.227 5.227 0 0 1 0.411 57.97 A 4.698 4.698 0 0 1 0 56.014 L 0 28.614 Q 0 26.614 1.5 25.114 A 5.227 5.227 0 0 1 3.043 24.025 A 4.698 4.698 0 0 1 5 23.614 L 38.8 23.614 L 38.8 2.714 Q 38.8 1.706 39.092 1.067 A 1.775 1.775 0 0 1 39.95 0.164 A 1.656 1.656 0 0 1 40.674 0 Q 41.541 0 42.613 0.844 A 7.159 7.159 0 0 1 42.7 0.914 Z" vector-effect="non-scaling-stroke"/></g></svg>