<svg width="92.206" height="86.704" viewBox="0 0 92.206 86.704" xmlns="http://www.w3.org/2000/svg"><g id="svgGroup" stroke-linecap="round" fill-rule="evenodd" font-size="9pt" stroke="#000" stroke-width="0" fill="#000" style="stroke:#000;stroke-width:0;fill:#000"><path d="M 86.604 36.1 L 43.504 79.2 A 24.298 24.298 0 0 1 25.875 86.698 A 29.73 29.73 0 0 1 25.504 86.7 A 24.307 24.307 0 0 1 7.765 79.461 A 29.197 29.197 0 0 1 7.504 79.2 A 24.635 24.635 0 0 1 0.006 61.43 A 29.763 29.763 0 0 1 0.004 61.1 A 24.307 24.307 0 0 1 7.242 43.361 A 29.197 29.197 0 0 1 7.504 43.1 L 50.504 0 L 54.404 3.9 L 11.604 46.7 A 19.52 19.52 0 0 0 5.804 60.835 A 23.742 23.742 0 0 0 5.804 60.9 Q 5.804 69.2 11.604 75.1 A 18.999 18.999 0 0 0 25.381 80.998 A 23.148 23.148 0 0 0 25.704 81 A 19.332 19.332 0 0 0 39.719 75.283 A 23.561 23.561 0 0 0 39.904 75.1 L 78.204 36.8 L 82.404 32.5 Q 86.404 28.5 86.404 22.85 A 13.134 13.134 0 0 0 82.528 13.325 A 15.912 15.912 0 0 0 82.404 13.2 Q 78.404 9.2 72.754 9.2 A 13.134 13.134 0 0 0 63.229 13.076 A 15.912 15.912 0 0 0 63.104 13.2 L 21.104 55.2 A 6.933 6.933 0 0 0 19.004 60.206 A 8.51 8.51 0 0 0 19.004 60.3 Q 19.004 63.3 21.104 65.5 Q 23.304 67.6 26.304 67.6 A 6.937 6.937 0 0 0 31.338 65.565 A 8.261 8.261 0 0 0 31.404 65.5 L 62.204 34.7 L 66.104 38.6 L 35.004 69.6 A 12.811 12.811 0 0 1 30.288 72.666 A 12.636 12.636 0 0 1 25.954 73.4 A 12.006 12.006 0 0 1 17.178 69.776 A 14.797 14.797 0 0 1 17.004 69.6 A 12.93 12.93 0 0 1 14.04 65.17 A 12.401 12.401 0 0 1 13.204 60.6 A 12.276 12.276 0 0 1 16.886 51.719 A 15.593 15.593 0 0 1 17.004 51.6 L 59.504 9.1 Q 65.104 3.5 73.054 3.5 A 18.437 18.437 0 0 1 86.428 8.926 A 22.165 22.165 0 0 1 86.604 9.1 Q 92.204 14.6 92.204 22.55 A 18.437 18.437 0 0 1 86.777 35.924 A 22.165 22.165 0 0 1 86.604 36.1 Z" vector-effect="non-scaling-stroke"/></g></svg>