<svg width="90.904" height="93.32" viewBox="0 0 90.904 93.32" xmlns="http://www.w3.org/2000/svg"><g id="svgGroup" stroke-linecap="round" fill-rule="evenodd" font-size="9pt" stroke="#000" stroke-width="0" fill="#000" style="stroke:#000;stroke-width:0;fill:#000"><path d="M 48.9 3.42 L 48.9 20.82 L 54.6 20.82 A 34.917 34.917 0 0 1 79.916 31.14 A 42.482 42.482 0 0 1 80.25 31.47 A 35.367 35.367 0 0 1 89.464 46.651 A 36.681 36.681 0 0 1 90.9 57.02 A 34.917 34.917 0 0 1 80.58 82.336 A 42.482 42.482 0 0 1 80.25 82.67 A 34.924 34.924 0 0 1 55.068 93.317 A 41.971 41.971 0 0 1 54.6 93.32 L 37.6 93.32 A 5.248 5.248 0 0 1 33.857 91.775 A 6.89 6.89 0 0 1 33.75 91.67 A 5.75 5.75 0 0 1 32.552 89.972 A 5.168 5.168 0 0 1 32.1 87.82 L 32.1 79.72 A 5.214 5.214 0 0 1 33.648 75.921 A 6.31 6.31 0 0 1 33.75 75.82 Q 35.4 74.22 37.6 74.22 L 54.6 74.22 A 16.379 16.379 0 0 0 66.543 69.327 A 19.881 19.881 0 0 0 66.7 69.17 A 16.637 16.637 0 0 0 71.7 57.131 A 20.095 20.095 0 0 0 71.7 57.02 A 16.421 16.421 0 0 0 66.807 45.128 A 20.46 20.46 0 0 0 66.65 44.97 A 16.979 16.979 0 0 0 60.256 40.852 A 16.905 16.905 0 0 0 54.6 39.92 L 48.9 39.92 L 48.9 57.32 A 5.634 5.634 0 0 1 48.798 58.436 Q 48.672 59.058 48.391 59.519 A 2.493 2.493 0 0 1 47.45 60.42 Q 46 61.22 44.1 60.02 L 2 33.42 A 6.041 6.041 0 0 1 1.035 32.655 Q 0 31.629 0 30.37 Q 0 28.797 1.616 27.588 A 7.082 7.082 0 0 1 2 27.32 L 44.1 0.72 Q 46 -0.48 47.45 0.32 Q 48.74 1.032 48.882 2.93 A 6.549 6.549 0 0 1 48.9 3.42 Z" vector-effect="non-scaling-stroke"/></g></svg>