<svg width="88.375" height="83.009" viewBox="0 0 88.375 83.009" xmlns="http://www.w3.org/2000/svg"><g id="svgGroup" stroke-linecap="round" fill-rule="evenodd" font-size="9pt" stroke="#000" stroke-width="0" fill="#000" style="stroke:#000;stroke-width:0;fill:#000"><path d="M 37.231 57.944 L 83.031 1.244 A 2.79 2.79 0 0 1 84.884 0.053 A 3.368 3.368 0 0 1 84.931 0.044 A 3.181 3.181 0 0 1 85.454 0 Q 86.335 0 87.1 0.523 A 3.478 3.478 0 0 1 87.131 0.544 Q 88.131 1.244 88.331 2.394 A 2.936 2.936 0 0 1 88.375 2.898 Q 88.375 3.767 87.831 4.544 Q 56.397 60.647 46.473 74.956 A 35.058 35.058 0 0 1 43.231 79.144 Q 35.031 87.344 26.831 78.144 L 0.931 45.244 A 4.19 4.19 0 0 1 0 42.589 A 4.928 4.928 0 0 1 0.031 42.044 A 4.248 4.248 0 0 1 0.649 40.219 A 4.254 4.254 0 0 1 1.631 39.144 L 8.731 33.544 A 4.19 4.19 0 0 1 11.386 32.614 A 4.928 4.928 0 0 1 11.931 32.644 A 4.164 4.164 0 0 1 13.398 33.072 A 3.738 3.738 0 0 1 14.731 34.244 L 33.431 57.844 A 2.301 2.301 0 0 0 34.951 58.623 A 3.261 3.261 0 0 0 35.331 58.644 A 3.329 3.329 0 0 0 36.129 58.554 A 2.305 2.305 0 0 0 37.231 57.944 Z" vector-effect="non-scaling-stroke"/></g></svg>