<svg width="84.004" height="80.602" viewBox="0 0 84.004 80.602" xmlns="http://www.w3.org/2000/svg"><g id="svgGroup" stroke-linecap="round" fill-rule="nonzero" font-size="9pt" stroke="#000" stroke-width="0" fill="#000" style="stroke:#000;stroke-width:0;fill:#000"><path d="M 18.102 0.002 L 65.902 0.002 A 17.419 17.419 0 0 1 78.535 5.138 A 21.041 21.041 0 0 1 78.702 5.302 A 17.53 17.53 0 0 1 84 17.965 A 21.642 21.642 0 0 1 84.002 18.202 L 84.002 47.902 A 17.419 17.419 0 0 1 78.866 60.536 A 21.041 21.041 0 0 1 78.702 60.702 A 17.419 17.419 0 0 1 66.135 66.001 A 21.081 21.081 0 0 1 65.902 66.002 L 63.402 66.002 L 57.702 78.802 Q 57.002 80.602 55.802 80.602 A 1.671 1.671 0 0 1 54.743 80.207 Q 54.18 79.759 53.702 78.802 L 48.402 66.002 L 18.102 66.002 A 17.419 17.419 0 0 1 5.468 60.867 A 21.041 21.041 0 0 1 5.302 60.702 A 17.419 17.419 0 0 1 0.003 48.136 A 21.081 21.081 0 0 1 0.002 47.902 L 0.002 18.202 A 17.925 17.925 0 0 1 1.957 9.818 A 18.306 18.306 0 0 1 5.302 5.302 A 17.419 17.419 0 0 1 17.868 0.004 A 21.081 21.081 0 0 1 18.102 0.002 Z M 63.802 37.102 L 65.502 17.702 Q 65.502 17.002 64.902 16.802 A 1.232 1.232 0 0 0 64.705 16.694 Q 64.23 16.49 63.822 16.883 A 1.382 1.382 0 0 0 63.802 16.902 L 51.902 27.402 L 42.802 14.202 Q 42.534 13.935 42.267 13.846 A 0.838 0.838 0 0 0 42.002 13.802 Q 41.67 13.802 41.339 14.077 A 1.99 1.99 0 0 0 41.202 14.202 L 32.102 27.302 L 20.202 16.902 A 1.801 1.801 0 0 0 20.007 16.732 Q 19.587 16.418 19.219 16.623 A 0.844 0.844 0 0 0 19.102 16.702 A 1.119 1.119 0 0 0 18.736 16.984 Q 18.553 17.203 18.513 17.518 A 1.458 1.458 0 0 0 18.502 17.702 L 20.202 37.102 Q 20.202 37.602 20.702 37.902 A 23.112 23.112 0 0 0 25.848 40.001 Q 31.136 41.513 38.931 41.756 A 98.744 98.744 0 0 0 42.002 41.802 L 42.102 41.802 A 84.641 84.641 0 0 0 49.553 41.498 Q 56.862 40.85 61.478 38.819 A 19.235 19.235 0 0 0 63.302 37.902 A 1.238 1.238 0 0 0 63.565 37.695 A 0.832 0.832 0 0 0 63.802 37.102 Z M 63.002 48.302 L 63.002 48.202 L 63.502 42.602 Q 63.602 42.102 63.102 41.702 A 1.883 1.883 0 0 0 62.804 41.582 Q 62.375 41.453 62.002 41.602 Q 56.838 44.734 46.157 45.215 A 90.303 90.303 0 0 1 42.102 45.302 L 42.002 45.302 A 83.132 83.132 0 0 1 35.161 45.041 Q 28.41 44.482 24.156 42.722 A 17.294 17.294 0 0 1 21.902 41.602 Q 21.402 41.302 20.902 41.602 Q 20.402 41.902 20.402 42.502 L 20.902 48.102 L 20.902 48.202 A 1.704 1.704 0 0 0 21.258 48.947 Q 21.806 49.646 23.152 50.302 A 10.364 10.364 0 0 0 24.486 50.827 Q 26.541 51.494 30.102 52.002 A 61.542 61.542 0 0 0 34.072 52.429 Q 36.294 52.6 38.836 52.664 A 125.738 125.738 0 0 0 42.002 52.702 L 42.102 52.702 A 117.153 117.153 0 0 0 47.049 52.604 Q 49.454 52.502 51.534 52.295 A 55.459 55.459 0 0 0 53.952 52.002 Q 58.802 51.302 60.802 50.352 A 8.365 8.365 0 0 0 61.64 49.899 Q 62.47 49.381 62.802 48.821 A 1.561 1.561 0 0 0 63.002 48.302 Z" vector-effect="non-scaling-stroke"/></g></svg>