<svg width="90.004" height="86.302" viewBox="0 0 90.004 86.302" xmlns="http://www.w3.org/2000/svg"><g id="svgGroup" stroke-linecap="round" fill-rule="evenodd" font-size="9pt" stroke="#000" stroke-width="0" fill="#000" style="stroke:#000;stroke-width:0;fill:#000"><path d="M 19.402 0.002 L 70.602 0.002 A 18.654 18.654 0 0 1 84.123 5.525 A 22.814 22.814 0 0 1 84.302 5.702 A 18.661 18.661 0 0 1 90.001 19.153 A 22.306 22.306 0 0 1 90.002 19.402 L 90.002 51.302 A 18.654 18.654 0 0 1 84.479 64.823 A 22.814 22.814 0 0 1 84.302 65.002 A 18.661 18.661 0 0 1 70.851 70.701 A 22.306 22.306 0 0 1 70.602 70.702 L 67.902 70.702 L 61.802 84.402 A 5.659 5.659 0 0 1 61.416 85.165 Q 60.719 86.302 59.752 86.302 A 1.7 1.7 0 0 1 58.644 85.874 Q 58.111 85.43 57.662 84.525 A 7.541 7.541 0 0 1 57.602 84.402 L 51.902 70.702 L 19.402 70.702 A 22.374 22.374 0 0 1 19.277 70.702 Q 11.388 70.658 5.746 65.046 A 22.967 22.967 0 0 1 5.702 65.002 A 22.907 22.907 0 0 1 5.613 64.913 Q 0.002 59.239 0.002 51.302 L 0.002 19.402 A 18.654 18.654 0 0 1 5.525 5.881 A 22.814 22.814 0 0 1 5.702 5.702 A 18.661 18.661 0 0 1 19.153 0.003 A 22.306 22.306 0 0 1 19.402 0.002 Z M 57.702 44.902 L 70.302 44.702 A 2.473 2.473 0 0 0 70.674 44.676 Q 71.122 44.608 71.315 44.356 A 0.65 0.65 0 0 0 71.402 44.202 Q 71.596 43.716 71.035 43.135 A 2.818 2.818 0 0 0 71.002 43.102 L 42.802 14.902 A 4.182 4.182 0 0 0 40.587 13.581 Q 39.911 13.413 39.109 13.403 A 8.203 8.203 0 0 0 39.002 13.402 L 26.402 13.602 A 3.189 3.189 0 0 0 25.445 13.831 Q 24.25 14.343 24.102 15.902 L 23.902 28.502 Q 23.902 30.802 25.402 32.302 L 53.602 60.502 Q 54.202 61.102 54.702 60.902 Q 55.19 60.707 55.202 59.844 A 3.154 3.154 0 0 0 55.202 59.802 L 55.402 47.202 A 3.189 3.189 0 0 1 55.631 46.245 Q 56.143 45.05 57.702 44.902 Z M 29.51 20.682 A 3.462 3.462 0 0 0 29.202 22.152 A 4.17 4.17 0 0 0 29.202 22.197 A 3.326 3.326 0 0 0 30.202 24.602 A 4.008 4.008 0 0 0 30.313 24.719 A 3.164 3.164 0 0 0 32.652 25.702 Q 34.102 25.702 35.102 24.602 A 4.008 4.008 0 0 0 35.219 24.491 A 3.164 3.164 0 0 0 36.202 22.152 Q 36.202 20.702 35.102 19.702 A 3.398 3.398 0 0 0 34.122 19.01 A 3.462 3.462 0 0 0 32.652 18.702 A 4.17 4.17 0 0 0 32.607 18.702 A 3.326 3.326 0 0 0 30.202 19.702 A 3.398 3.398 0 0 0 29.51 20.682 Z" vector-effect="non-scaling-stroke"/></g></svg>