<svg width="84.004" height="80.602" viewBox="0 0 84.004 80.602" xmlns="http://www.w3.org/2000/svg"><g id="svgGroup" stroke-linecap="round" fill-rule="evenodd" font-size="9pt" stroke="#000" stroke-width="0" fill="#000" style="stroke:#000;stroke-width:0;fill:#000"><path d="M 18.102 0.002 L 65.902 0.002 A 17.419 17.419 0 0 1 78.536 5.138 A 21.041 21.041 0 0 1 78.702 5.302 A 17.419 17.419 0 0 1 84.001 17.868 A 21.081 21.081 0 0 1 84.002 18.102 L 84.002 47.802 A 17.594 17.594 0 0 1 78.785 60.569 A 21.411 21.411 0 0 1 78.702 60.652 A 17.339 17.339 0 0 1 66.136 66.001 A 20.887 20.887 0 0 1 65.902 66.002 L 63.402 66.002 L 57.702 78.802 Q 57.002 80.602 55.802 80.602 A 1.606 1.606 0 0 1 54.71 80.159 Q 54.205 79.709 53.802 78.802 L 48.402 66.002 L 18.102 66.002 A 17.336 17.336 0 0 1 5.468 60.818 A 21.141 21.141 0 0 1 5.302 60.652 A 17.596 17.596 0 0 1 0.003 47.919 A 21.148 21.148 0 0 1 0.002 47.802 L 0.002 18.102 A 17.419 17.419 0 0 1 5.138 5.468 A 21.041 21.041 0 0 1 5.302 5.302 A 17.419 17.419 0 0 1 17.868 0.004 A 21.081 21.081 0 0 1 18.102 0.002 Z" vector-effect="non-scaling-stroke"/></g></svg>