<svg width="105.902" height="80.602" viewBox="0 0 105.902 80.602" xmlns="http://www.w3.org/2000/svg"><g id="svgGroup" stroke-linecap="round" fill-rule="evenodd" font-size="9pt" stroke="#000" stroke-width="0" fill="#000" style="stroke:#000;stroke-width:0;fill:#000"><path d="M 47.302 49.702 L 71.602 65.102 A 17.9 17.9 0 0 1 65.925 66.002 A 20.184 20.184 0 0 1 65.902 66.002 L 63.402 66.002 L 57.702 78.802 Q 57.002 80.602 55.802 80.602 A 1.606 1.606 0 0 1 54.709 80.159 Q 54.205 79.709 53.802 78.802 L 48.402 66.002 L 18.102 66.002 A 17.419 17.419 0 0 1 5.468 60.867 A 21.041 21.041 0 0 1 5.302 60.702 A 17.419 17.419 0 0 1 0.003 48.136 A 21.081 21.081 0 0 1 0.002 47.902 L 0.002 18.202 A 17.925 17.925 0 0 1 1.957 9.818 A 18.306 18.306 0 0 1 5.302 5.302 A 17.419 17.419 0 0 1 17.868 0.004 A 21.081 21.081 0 0 1 18.102 0.002 L 65.902 0.002 A 17.419 17.419 0 0 1 78.535 5.138 A 21.041 21.041 0 0 1 78.702 5.302 A 17.53 17.53 0 0 1 84 17.965 A 21.642 21.642 0 0 1 84.002 18.202 L 84.002 21.302 A 7.012 7.012 0 0 0 81.593 18.934 Q 79.98 18.002 77.802 18.002 A 8.11 8.11 0 0 0 74.711 18.634 A 10.687 10.687 0 0 0 73.202 19.402 L 47.302 35.802 A 9.944 9.944 0 0 0 45.035 37.778 A 7.484 7.484 0 0 0 43.302 42.702 A 7.717 7.717 0 0 0 46.045 48.755 A 10.912 10.912 0 0 0 47.302 49.702 Z M 79.402 26.102 L 79.402 34.902 L 82.902 34.902 A 24.497 24.497 0 0 1 91.645 36.416 A 22.051 22.051 0 0 1 99.302 41.352 Q 105.396 47.309 105.863 57.998 A 41.39 41.39 0 0 1 105.902 59.802 Q 105.902 68.202 99.852 74.402 A 20.001 20.001 0 0 1 85.317 80.599 A 25.266 25.266 0 0 1 84.902 80.602 Q 82.844 80.602 81.507 80.562 A 52.822 52.822 0 0 1 81.202 80.552 Q 80.048 80.511 79.335 80.402 A 6.372 6.372 0 0 1 79.052 80.352 Q 78.305 80.203 78.054 80.004 A 0.594 0.594 0 0 1 78.052 80.002 A 0.64 0.64 0 0 1 77.829 79.643 Q 77.802 79.534 77.802 79.402 A 0.72 0.72 0 0 1 78.079 78.922 Q 79.081 77.969 83.702 76.402 Q 84.526 76.073 85.078 75.879 A 15.118 15.118 0 0 1 85.302 75.802 Q 89.702 74.302 92.402 70.752 A 13.71 13.71 0 0 0 94.384 67.208 A 11.468 11.468 0 0 0 95.102 63.202 A 14.503 14.503 0 0 0 94.574 59.19 A 10.941 10.941 0 0 0 91.352 54.002 A 13.429 13.429 0 0 0 87.496 51.506 A 11.832 11.832 0 0 0 82.902 50.602 L 79.402 50.602 L 79.402 59.402 Q 79.402 61.373 77.992 61.494 A 2.227 2.227 0 0 1 77.802 61.502 A 1.798 1.798 0 0 1 77.313 61.429 Q 77.091 61.366 76.848 61.25 A 4.568 4.568 0 0 1 76.402 61.002 L 50.502 44.602 A 3.558 3.558 0 0 1 49.908 44.115 Q 49.302 43.484 49.302 42.702 A 1.821 1.821 0 0 1 49.895 41.353 Q 50.145 41.11 50.502 40.902 L 76.402 24.502 A 4.5 4.5 0 0 1 76.879 24.24 Q 77.388 24.002 77.802 24.002 A 1.711 1.711 0 0 1 78.53 24.146 Q 79.257 24.485 79.378 25.62 A 4.577 4.577 0 0 1 79.402 26.102 Z" vector-effect="non-scaling-stroke"/></g></svg>