<svg width="100.003" height="100.003" viewBox="0 0 100.003 100.003" xmlns="http://www.w3.org/2000/svg"><g id="svgGroup" stroke-linecap="round" fill-rule="nonzero" font-size="9pt" stroke="#000" stroke-width="0" fill="#000" style="stroke:#000;stroke-width:0;fill:#000"><path d="M 24.901 6.701 Q 36.401 0.001 50.001 0.001 Q 63.601 0.001 75.101 6.701 Q 86.601 13.401 93.301 24.901 Q 100.001 36.401 100.001 50.001 Q 100.001 63.601 93.301 75.101 Q 86.601 86.601 75.101 93.301 Q 63.601 100.001 50.001 100.001 Q 36.401 100.001 24.901 93.301 Q 13.401 86.601 6.701 75.101 Q 0.001 63.601 0.001 50.001 Q 0.001 36.401 6.701 24.901 Q 13.401 13.401 24.901 6.701 Z M 54.701 74.401 L 78.301 38.301 A 9.689 9.689 0 0 0 78.961 37.162 Q 79.551 35.944 79.551 34.883 A 3.497 3.497 0 0 0 79.101 33.151 A 3.818 3.818 0 0 0 77.032 31.428 Q 76.327 31.161 75.437 31.061 A 10.195 10.195 0 0 0 74.301 31.001 L 25.701 31.001 A 9.308 9.308 0 0 0 24.005 31.144 Q 21.792 31.556 20.901 33.151 Q 19.894 34.957 21.143 37.362 A 10.049 10.049 0 0 0 21.701 38.301 L 45.301 74.401 A 8.317 8.317 0 0 0 46.5 75.91 Q 48.027 77.401 50.001 77.401 A 4.846 4.846 0 0 0 53.426 75.983 Q 54.108 75.339 54.701 74.401 Z" vector-effect="non-scaling-stroke"/></g></svg>