<svg width="112.706" height="106.402" viewBox="0 0 112.706 106.402" xmlns="http://www.w3.org/2000/svg"><g id="svgGroup" stroke-linecap="round" fill-rule="evenodd" font-size="9pt" stroke="#000" stroke-width="0" fill="#000" style="stroke:#000;stroke-width:0;fill:#000"><path d="M 11.601 35.1 L 67.401 35.1 A 11.04 11.04 0 0 1 75.394 38.395 A 13.817 13.817 0 0 1 75.501 38.5 A 11.457 11.457 0 0 1 78.25 42.736 A 11.319 11.319 0 0 1 78.901 46.6 L 78.901 94.8 A 11.161 11.161 0 0 1 75.606 102.894 A 13.529 13.529 0 0 1 75.501 103 A 11.457 11.457 0 0 1 71.264 105.749 A 11.319 11.319 0 0 1 67.401 106.4 L 11.601 106.4 A 11.161 11.161 0 0 1 3.507 103.106 A 13.529 13.529 0 0 1 3.401 103 A 11.162 11.162 0 0 1 0.002 94.95 A 13.462 13.462 0 0 1 0.001 94.8 L 0.001 46.6 A 11.04 11.04 0 0 1 3.295 38.607 A 13.817 13.817 0 0 1 3.401 38.5 A 11.162 11.162 0 0 1 11.451 35.101 A 13.462 13.462 0 0 1 11.601 35.1 Z M 71.201 94.8 L 71.201 46.6 A 3.834 3.834 0 0 0 70.876 45.01 A 3.724 3.724 0 0 0 70.101 43.9 A 3.664 3.664 0 0 0 67.451 42.8 A 4.623 4.623 0 0 0 67.401 42.8 L 11.601 42.8 Q 10.001 42.8 8.851 43.9 A 3.581 3.581 0 0 0 7.702 46.501 A 4.389 4.389 0 0 0 7.701 46.6 L 7.701 94.8 A 3.747 3.747 0 0 0 8.815 97.514 A 4.641 4.641 0 0 0 8.851 97.55 A 3.848 3.848 0 0 0 10.369 98.509 A 3.889 3.889 0 0 0 11.601 98.7 L 67.401 98.7 A 3.583 3.583 0 0 0 70.031 97.621 A 4.319 4.319 0 0 0 70.101 97.55 Q 71.201 96.4 71.201 94.8 Z M 110.001 39.3 A 2.591 2.591 0 0 0 111.876 38.525 A 3.269 3.269 0 0 0 111.901 38.5 A 2.711 2.711 0 0 0 112.534 37.543 A 2.634 2.634 0 0 0 112.701 36.6 A 35.239 35.239 0 0 0 102.332 11.036 A 42.324 42.324 0 0 0 102.001 10.7 A 35.121 35.121 0 0 0 76.672 0.003 A 42.329 42.329 0 0 0 76.201 0 A 2.591 2.591 0 0 0 74.326 0.775 A 3.269 3.269 0 0 0 74.301 0.8 A 2.699 2.699 0 0 0 73.502 2.723 A 3.543 3.543 0 0 0 73.501 2.8 A 2.591 2.591 0 0 0 74.276 4.675 A 3.269 3.269 0 0 0 74.301 4.7 A 2.711 2.711 0 0 0 75.258 5.333 A 2.634 2.634 0 0 0 76.201 5.5 A 29.937 29.937 0 0 1 97.915 14.318 A 36.066 36.066 0 0 1 98.201 14.6 A 29.933 29.933 0 0 1 107.298 36.198 A 36.325 36.325 0 0 1 107.301 36.6 A 2.591 2.591 0 0 0 108.076 38.475 A 3.269 3.269 0 0 0 108.101 38.5 A 2.711 2.711 0 0 0 109.058 39.133 A 2.634 2.634 0 0 0 110.001 39.3 Z M 99.301 42.4 A 2.591 2.591 0 0 0 101.176 41.625 A 3.269 3.269 0 0 0 101.201 41.6 A 2.699 2.699 0 0 0 102 39.677 A 3.543 3.543 0 0 0 102.001 39.6 A 28.204 28.204 0 0 0 93.609 19.209 A 34.626 34.626 0 0 0 93.601 19.2 A 27.905 27.905 0 0 0 73.475 10.702 A 33.653 33.653 0 0 0 73.101 10.7 A 2.503 2.503 0 0 0 71.276 11.472 A 3.319 3.319 0 0 0 71.201 11.55 A 2.983 2.983 0 0 0 70.601 12.462 A 2.707 2.707 0 0 0 70.401 13.5 A 2.591 2.591 0 0 0 71.176 15.375 A 3.269 3.269 0 0 0 71.201 15.4 A 2.711 2.711 0 0 0 72.158 16.033 A 2.634 2.634 0 0 0 73.101 16.2 Q 83.001 16.2 89.701 23.1 A 23.087 23.087 0 0 1 95.451 32.213 A 23.333 23.333 0 0 1 96.601 39.6 A 2.957 2.957 0 0 0 96.782 40.653 A 2.657 2.657 0 0 0 97.401 41.6 A 2.711 2.711 0 0 0 98.358 42.233 A 2.634 2.634 0 0 0 99.301 42.4 Z M 55.701 79.6 L 52.301 78.5 L 51.901 78.4 Q 51.16 78.4 50.758 79.01 A 2.007 2.007 0 0 0 50.601 79.3 Q 50.601 79.386 50.418 79.799 A 14.551 14.551 0 0 1 50.351 79.95 Q 50.101 80.5 49.301 81.45 A 10.484 10.484 0 0 1 48.164 82.599 A 13.009 13.009 0 0 1 47.351 83.25 A 6.821 6.821 0 0 1 46.361 83.85 Q 45.417 84.324 44.101 84.7 Q 42.001 85.3 39.501 85.3 A 19.304 19.304 0 0 1 37.075 85.155 A 14.327 14.327 0 0 1 34.851 84.7 A 16.796 16.796 0 0 1 33.548 84.264 Q 32.405 83.825 31.651 83.3 A 10.535 10.535 0 0 1 29.882 81.762 A 9.687 9.687 0 0 1 29.651 81.5 A 19.582 19.582 0 0 1 29.288 81.062 Q 28.793 80.443 28.625 80.102 A 1.486 1.486 0 0 1 28.601 80.05 A 13.129 13.129 0 0 1 28.475 79.758 Q 28.366 79.497 28.301 79.3 Q 27.905 78.41 27.02 78.4 A 1.787 1.787 0 0 0 27.001 78.4 L 23.301 79.6 A 0.874 0.874 0 0 0 23.013 79.737 Q 22.787 79.895 22.561 80.212 A 3.511 3.511 0 0 0 22.501 80.3 Q 22.201 80.7 22.401 81.3 A 37.205 37.205 0 0 0 23.444 83.197 Q 24.471 84.933 25.419 86.001 A 10.011 10.011 0 0 0 25.601 86.2 A 16.885 16.885 0 0 0 34.813 91.075 A 24.646 24.646 0 0 0 39.501 91.5 A 23.908 23.908 0 0 0 43.677 91.149 A 19.55 19.55 0 0 0 46.451 90.45 Q 49.601 89.4 51.351 88.05 A 16.191 16.191 0 0 0 53.989 85.508 A 14.889 14.889 0 0 0 54.351 85.05 Q 55.601 83.4 56.001 82.55 A 17.693 17.693 0 0 0 56.182 82.153 Q 56.426 81.6 56.501 81.3 A 1.673 1.673 0 0 0 56.558 81.084 Q 56.645 80.626 56.401 80.3 A 1.205 1.205 0 0 0 55.734 79.614 A 1.466 1.466 0 0 0 55.701 79.6 Z M 89.401 44.7 A 2.699 2.699 0 0 0 90.2 42.777 A 3.543 3.543 0 0 0 90.201 42.7 A 19.332 19.332 0 0 0 84.484 28.685 A 23.561 23.561 0 0 0 84.301 28.5 A 19.447 19.447 0 0 0 70.263 22.602 A 23.754 23.754 0 0 0 70.001 22.6 A 2.591 2.591 0 0 0 68.126 23.375 A 3.269 3.269 0 0 0 68.101 23.4 A 2.711 2.711 0 0 0 67.468 24.357 A 2.634 2.634 0 0 0 67.301 25.3 A 2.591 2.591 0 0 0 68.076 27.175 A 3.269 3.269 0 0 0 68.101 27.2 A 2.711 2.711 0 0 0 69.058 27.833 A 2.634 2.634 0 0 0 70.001 28 A 15.098 15.098 0 0 1 75.341 28.914 A 13.467 13.467 0 0 1 80.401 32.3 A 15.044 15.044 0 0 1 83.768 37.263 A 14.256 14.256 0 0 1 84.801 42.7 A 2.749 2.749 0 0 0 85.548 44.593 A 3.559 3.559 0 0 0 85.601 44.65 Q 86.401 45.5 87.501 45.5 Q 88.401 45.5 89.401 44.7 Z M 54.901 66.8 L 54.901 57.2 A 1.751 1.751 0 0 0 54.36 55.907 A 2.191 2.191 0 0 0 54.301 55.85 Q 53.701 55.3 52.901 55.3 L 49.101 55.3 A 2.735 2.735 0 0 0 48.349 55.394 Q 47.506 55.636 47.282 56.497 A 2.799 2.799 0 0 0 47.201 57.2 L 47.201 66.8 A 2.735 2.735 0 0 0 47.295 67.552 Q 47.536 68.395 48.397 68.619 A 2.799 2.799 0 0 0 49.101 68.7 L 52.901 68.7 Q 53.701 68.7 54.301 68.15 A 1.837 1.837 0 0 0 54.764 67.506 A 1.804 1.804 0 0 0 54.901 66.8 Z M 31.801 66.8 L 31.801 57.2 A 1.751 1.751 0 0 0 31.26 55.907 A 2.191 2.191 0 0 0 31.201 55.85 Q 30.601 55.3 29.801 55.3 L 26.001 55.3 A 2.735 2.735 0 0 0 25.249 55.394 Q 24.406 55.636 24.182 56.497 A 2.799 2.799 0 0 0 24.101 57.2 L 24.101 66.8 A 2.735 2.735 0 0 0 24.195 67.552 Q 24.436 68.395 25.297 68.619 A 2.799 2.799 0 0 0 26.001 68.7 L 29.801 68.7 Q 30.601 68.7 31.201 68.15 A 1.837 1.837 0 0 0 31.664 67.506 A 1.804 1.804 0 0 0 31.801 66.8 Z" vector-effect="non-scaling-stroke"/></g></svg>