<svg width="96.403" height="87.003" viewBox="0 0 96.403 87.003" xmlns="http://www.w3.org/2000/svg"><g id="svgGroup" stroke-linecap="round" fill-rule="evenodd" font-size="9pt" stroke="#000" stroke-width="0" fill="#000" style="stroke:#000;stroke-width:0;fill:#000"><path d="M 14.101 0.001 L 82.301 0.001 A 13.552 13.552 0 0 1 92.121 4.023 A 16.68 16.68 0 0 1 92.251 4.151 A 13.804 13.804 0 0 1 95.812 9.963 A 14.235 14.235 0 0 1 96.401 14.101 L 96.401 72.901 A 13.552 13.552 0 0 1 92.38 82.721 A 16.68 16.68 0 0 1 92.251 82.851 A 13.804 13.804 0 0 1 86.439 86.412 A 14.235 14.235 0 0 1 82.301 87.001 L 14.101 87.001 A 13.552 13.552 0 0 1 4.281 82.98 A 16.68 16.68 0 0 1 4.151 82.851 A 13.804 13.804 0 0 1 0.591 77.039 A 14.235 14.235 0 0 1 0.001 72.901 L 0.001 14.101 A 13.552 13.552 0 0 1 4.023 4.281 A 16.68 16.68 0 0 1 4.151 4.151 A 13.804 13.804 0 0 1 9.963 0.591 A 14.235 14.235 0 0 1 14.101 0.001 Z M 87.001 72.901 L 87.001 14.101 Q 87.001 12.101 85.601 10.751 Q 84.201 9.401 82.301 9.401 L 14.101 9.401 Q 12.201 9.401 10.801 10.751 Q 9.401 12.101 9.401 14.101 L 9.401 72.901 Q 9.401 74.901 10.801 76.251 Q 12.201 77.601 14.101 77.601 L 82.301 77.601 Q 84.201 77.601 85.601 76.251 Q 87.001 74.901 87.001 72.901 Z M 68.001 54.401 L 63.901 53.001 L 63.401 53.001 Q 62.207 53.001 61.857 53.929 A 1.907 1.907 0 0 0 61.801 54.101 A 0.237 0.237 0 0 1 61.791 54.158 Q 61.753 54.293 61.584 54.67 A 19.972 19.972 0 0 1 61.501 54.851 A 3.399 3.399 0 0 1 61.277 55.252 Q 61.011 55.669 60.543 56.215 A 17.636 17.636 0 0 1 60.201 56.601 Q 59.201 57.701 57.801 58.701 A 8.704 8.704 0 0 1 56.646 59.388 Q 56.029 59.697 55.279 59.978 A 20.93 20.93 0 0 1 53.851 60.451 A 18.289 18.289 0 0 1 50.494 61.091 A 23.191 23.191 0 0 1 48.201 61.201 A 22.087 22.087 0 0 1 45.12 60.996 A 17.025 17.025 0 0 1 42.601 60.451 A 24.589 24.589 0 0 1 41.146 59.968 Q 39.664 59.42 38.701 58.801 A 10.58 10.58 0 0 1 36.574 57.015 A 9.813 9.813 0 0 1 36.301 56.701 Q 35.336 55.543 35.023 54.99 A 2.787 2.787 0 0 1 35.001 54.951 Q 34.701 54.401 34.601 54.101 Q 34.301 53.001 33.001 53.001 L 28.401 54.401 Q 27.801 54.701 27.501 55.301 Q 27.224 55.949 27.374 56.425 A 1.08 1.08 0 0 0 27.401 56.501 A 46.02 46.02 0 0 1 27.68 57.141 Q 27.895 57.645 28.051 58.051 A 2.764 2.764 0 0 0 28.221 58.397 Q 28.66 59.176 30.001 60.951 A 19.196 19.196 0 0 0 32.383 63.581 A 16.501 16.501 0 0 0 33.751 64.701 Q 35.129 65.709 37.318 66.627 A 35.154 35.154 0 0 0 39.651 67.501 A 24.591 24.591 0 0 0 44.933 68.633 A 30.914 30.914 0 0 0 48.201 68.801 A 29.417 29.417 0 0 0 53.187 68.396 A 23.643 23.643 0 0 0 56.751 67.501 Q 60.601 66.201 62.651 64.701 A 17.446 17.446 0 0 0 65.522 62.037 A 20.676 20.676 0 0 0 66.401 60.951 Q 67.745 59.173 68.183 58.394 A 2.751 2.751 0 0 0 68.351 58.051 A 24.108 24.108 0 0 1 68.56 57.529 Q 68.656 57.296 68.766 57.039 A 47.388 47.388 0 0 1 69.001 56.501 A 2.167 2.167 0 0 0 69.063 56.217 Q 69.138 55.697 68.901 55.301 Q 68.601 54.701 68.001 54.401 Z M 38.801 38.801 L 38.801 27.001 A 2.336 2.336 0 0 0 38.647 26.141 A 2.134 2.134 0 0 0 38.101 25.351 Q 37.401 24.701 36.401 24.701 L 31.701 24.701 A 2.517 2.517 0 0 0 30.88 24.83 A 2.143 2.143 0 0 0 30.051 25.351 A 2.195 2.195 0 0 0 29.407 26.817 A 2.933 2.933 0 0 0 29.401 27.001 L 29.401 38.801 A 2.517 2.517 0 0 0 29.53 39.622 A 2.143 2.143 0 0 0 30.051 40.451 A 2.195 2.195 0 0 0 31.517 41.096 A 2.933 2.933 0 0 0 31.701 41.101 L 36.401 41.101 Q 37.401 41.101 38.101 40.451 A 2.138 2.138 0 0 0 38.8 38.894 A 2.789 2.789 0 0 0 38.801 38.801 Z M 67.001 38.801 L 67.001 27.001 A 2.336 2.336 0 0 0 66.847 26.141 A 2.134 2.134 0 0 0 66.301 25.351 Q 65.601 24.701 64.701 24.701 L 60.001 24.701 Q 59.001 24.701 58.301 25.351 A 2.138 2.138 0 0 0 57.603 26.908 A 2.789 2.789 0 0 0 57.601 27.001 L 57.601 38.801 A 2.336 2.336 0 0 0 57.755 39.662 A 2.134 2.134 0 0 0 58.301 40.451 Q 59.001 41.101 60.001 41.101 L 64.701 41.101 A 2.272 2.272 0 0 0 66.252 40.496 A 2.932 2.932 0 0 0 66.301 40.451 A 2.138 2.138 0 0 0 67 38.894 A 2.789 2.789 0 0 0 67.001 38.801 Z" vector-effect="non-scaling-stroke"/></g></svg>