<svg width="92.41" height="92.41" viewBox="0 0 92.41 92.41" xmlns="http://www.w3.org/2000/svg"><g id="svgGroup" stroke-linecap="round" fill-rule="evenodd" font-size="9pt" stroke="#000" stroke-width="0" fill="#000" style="stroke:#000;stroke-width:0;fill:#000"><path d="M 45.61 0.009 A 44.451 44.451 0 0 0 13.555 13.555 Q 0.005 27.105 0.005 46.205 A 53.485 53.485 0 0 0 0.009 46.801 A 44.451 44.451 0 0 0 13.555 78.855 Q 27.105 92.405 46.205 92.405 A 53.485 53.485 0 0 0 46.801 92.402 A 44.451 44.451 0 0 0 78.855 78.855 Q 92.405 65.305 92.405 46.205 A 53.485 53.485 0 0 0 92.402 45.61 A 44.451 44.451 0 0 0 78.855 13.555 Q 65.305 0.005 46.205 0.005 A 53.485 53.485 0 0 0 45.61 0.009 Z M 57.905 31.405 L 34.505 31.405 A 46.224 46.224 0 0 0 32.791 38.661 A 56.328 56.328 0 0 0 32.305 42.805 L 60.105 42.805 Q 59.605 36.605 57.905 31.405 Z M 34.505 61.005 L 57.905 61.005 A 46.224 46.224 0 0 0 59.62 53.75 A 56.328 56.328 0 0 0 60.105 49.605 L 32.305 49.605 Q 32.805 55.805 34.505 61.005 Z M 16.905 24.505 L 29.805 24.505 Q 33.205 16.805 38.605 10.505 Q 25.205 13.405 16.905 24.505 Z M 29.805 67.905 L 16.905 67.905 Q 25.205 79.005 38.605 81.905 Q 33.205 75.605 29.805 67.905 Z M 75.505 67.905 L 62.605 67.905 Q 59.205 75.605 53.805 81.905 Q 67.205 79.005 75.505 67.905 Z M 62.605 24.505 L 75.505 24.505 Q 67.205 13.405 53.805 10.505 Q 59.205 16.805 62.605 24.505 Z M 25.505 49.605 L 9.905 49.605 A 32 32 0 0 0 12.666 60.48 A 36.353 36.353 0 0 0 12.905 61.005 L 27.405 61.005 A 61.525 61.525 0 0 1 25.964 54.092 A 50.02 50.02 0 0 1 25.505 49.605 Z M 66.905 42.805 L 82.505 42.805 A 32 32 0 0 0 79.744 31.931 A 36.353 36.353 0 0 0 79.505 31.405 L 65.005 31.405 A 61.525 61.525 0 0 1 66.447 38.319 A 50.02 50.02 0 0 1 66.905 42.805 Z M 9.905 42.805 L 25.505 42.805 A 52.27 52.27 0 0 1 26.388 35.821 A 64.492 64.492 0 0 1 27.405 31.405 L 12.905 31.405 A 32.516 32.516 0 0 0 10.05 41.268 A 30.592 30.592 0 0 0 9.905 42.805 Z M 82.505 49.605 L 66.905 49.605 A 52.27 52.27 0 0 1 66.022 56.59 A 64.492 64.492 0 0 1 65.005 61.005 L 79.505 61.005 A 32.516 32.516 0 0 0 82.36 51.142 A 30.592 30.592 0 0 0 82.505 49.605 Z M 37.405 24.505 L 55.005 24.505 A 49.307 49.307 0 0 0 46.849 13.062 A 46.402 46.402 0 0 0 46.205 12.405 A 48.923 48.923 0 0 0 37.632 24.076 A 54.689 54.689 0 0 0 37.405 24.505 Z M 55.005 67.905 L 37.405 67.905 A 49.307 49.307 0 0 0 45.561 79.349 A 46.404 46.404 0 0 0 46.205 80.005 A 48.923 48.923 0 0 0 54.779 68.335 A 54.689 54.689 0 0 0 55.005 67.905 Z" vector-effect="non-scaling-stroke"/></g></svg>