<svg width="80" height="76.2" viewBox="0 0 80 76.2" xmlns="http://www.w3.org/2000/svg"><g id="svgGroup" stroke-linecap="round" fill-rule="evenodd" font-size="9pt" stroke="#000" stroke-width="0" fill="#000" style="stroke:#000;stroke-width:0;fill:#000"><path d="M 3 46.3 L 77 46.3 A 3.075 3.075 0 0 0 78.12 46.102 A 2.796 2.796 0 0 0 79.15 45.4 Q 80 44.5 80 43.3 L 80 32.9 Q 80 31.7 79.15 30.8 A 2.813 2.813 0 0 0 77.101 29.902 A 3.681 3.681 0 0 0 77 29.9 L 3 29.9 A 3.075 3.075 0 0 0 1.88 30.098 A 2.796 2.796 0 0 0 0.85 30.8 Q 0 31.7 0 32.9 L 0 43.3 Q 0 44.5 0.85 45.4 A 2.813 2.813 0 0 0 2.899 46.299 A 3.681 3.681 0 0 0 3 46.3 Z M 3 16.3 L 77 16.3 A 3.256 3.256 0 0 0 78.084 16.126 A 2.806 2.806 0 0 0 79.15 15.45 A 2.871 2.871 0 0 0 79.995 13.503 A 3.82 3.82 0 0 0 80 13.3 L 80 3 A 3.256 3.256 0 0 0 79.826 1.917 A 2.806 2.806 0 0 0 79.15 0.85 A 2.871 2.871 0 0 0 77.203 0.005 A 3.82 3.82 0 0 0 77 0 L 3 0 A 3.256 3.256 0 0 0 1.917 0.174 A 2.806 2.806 0 0 0 0.85 0.85 A 2.871 2.871 0 0 0 0.005 2.797 A 3.82 3.82 0 0 0 0 3 L 0 13.3 A 3.256 3.256 0 0 0 0.174 14.384 A 2.806 2.806 0 0 0 0.85 15.45 A 2.871 2.871 0 0 0 2.797 16.295 A 3.82 3.82 0 0 0 3 16.3 Z M 3 76.2 L 77 76.2 A 3.256 3.256 0 0 0 78.084 76.026 A 2.806 2.806 0 0 0 79.15 75.35 A 2.871 2.871 0 0 0 79.995 73.403 A 3.82 3.82 0 0 0 80 73.2 L 80 62.9 A 3.256 3.256 0 0 0 79.826 61.817 A 2.806 2.806 0 0 0 79.15 60.75 A 2.871 2.871 0 0 0 77.203 59.905 A 3.82 3.82 0 0 0 77 59.9 L 3 59.9 A 3.256 3.256 0 0 0 1.917 60.074 A 2.806 2.806 0 0 0 0.85 60.75 A 2.871 2.871 0 0 0 0.005 62.697 A 3.82 3.82 0 0 0 0 62.9 L 0 73.2 A 3.256 3.256 0 0 0 0.174 74.284 A 2.806 2.806 0 0 0 0.85 75.35 A 2.871 2.871 0 0 0 2.797 76.195 A 3.82 3.82 0 0 0 3 76.2 Z" vector-effect="non-scaling-stroke"/></g></svg>