<svg width="89.801" height="73.401" viewBox="0 0 89.801 73.401" xmlns="http://www.w3.org/2000/svg"><g id="svgGroup" stroke-linecap="round" fill-rule="nonzero" font-size="9pt" stroke="#000" stroke-width="0" fill="#000" style="stroke:#000;stroke-width:0;fill:#000"><path d="M 5.4 0 L 84.4 0 Q 86.6 0 88.2 1.55 A 5.123 5.123 0 0 1 89.799 5.257 A 6.514 6.514 0 0 1 89.8 5.4 L 89.8 68 A 5.43 5.43 0 0 1 89.375 70.173 A 5.184 5.184 0 0 1 88.2 71.85 Q 86.6 73.4 84.4 73.4 L 5.4 73.4 Q 3.2 73.4 1.6 71.85 A 5.123 5.123 0 0 1 0.002 68.143 A 6.514 6.514 0 0 1 0 68 L 0 5.4 A 5.43 5.43 0 0 1 0.426 3.228 A 5.184 5.184 0 0 1 1.6 1.55 Q 3.2 0 5.4 0 Z M 80.7 43.7 L 80.7 14.5 Q 80.7 12.3 79.15 10.7 A 5.123 5.123 0 0 0 75.443 9.102 A 6.514 6.514 0 0 0 75.3 9.1 L 14.5 9.1 A 5.43 5.43 0 0 0 12.328 9.526 A 5.184 5.184 0 0 0 10.65 10.7 Q 9.1 12.3 9.1 14.5 L 9.1 37.7 A 5.536 5.536 0 0 0 9.193 38.753 Q 9.303 39.32 9.544 39.746 A 2.318 2.318 0 0 0 10.45 40.65 A 2.4 2.4 0 0 0 11.635 40.954 Q 12.372 40.954 13.229 40.549 A 6.443 6.443 0 0 0 13.7 40.3 L 24.1 34.2 Q 26.1 33.1 28.8 33.05 A 12.609 12.609 0 0 1 29.034 33.048 Q 31.587 33.048 33.5 34.1 L 49.6 42.8 A 8.87 8.87 0 0 0 52.193 43.613 Q 53.187 43.771 54.3 43.75 A 11.621 11.621 0 0 0 56.678 43.473 A 8.913 8.913 0 0 0 59 42.6 L 60 42 A 7.929 7.929 0 0 1 62.465 41.096 A 11.076 11.076 0 0 1 64.6 40.9 Q 67.3 40.9 69.2 42.1 L 76.1 46.3 A 6.139 6.139 0 0 0 76.811 46.69 Q 77.57 47.039 78.231 47.039 A 2.269 2.269 0 0 0 79.35 46.75 A 2.372 2.372 0 0 0 80.414 45.491 Q 80.7 44.761 80.7 43.7 Z M 63.994 30.5 A 8.51 8.51 0 0 1 63.9 30.5 A 6.937 6.937 0 0 1 58.866 28.466 A 8.261 8.261 0 0 1 58.8 28.4 A 6.933 6.933 0 0 1 56.701 23.394 A 8.51 8.51 0 0 1 56.7 23.3 A 6.937 6.937 0 0 1 58.735 18.266 A 8.261 8.261 0 0 1 58.8 18.2 A 6.933 6.933 0 0 1 63.807 16.101 A 8.51 8.51 0 0 1 63.9 16.1 A 6.937 6.937 0 0 1 68.935 18.135 A 8.261 8.261 0 0 1 69 18.2 A 6.933 6.933 0 0 1 71.1 23.207 A 8.51 8.51 0 0 1 71.1 23.3 A 6.937 6.937 0 0 1 69.065 28.335 A 8.261 8.261 0 0 1 69 28.4 A 6.933 6.933 0 0 1 63.994 30.5 Z" vector-effect="non-scaling-stroke"/></g></svg>