<svg width="117.204" height="84.604" viewBox="0 0 117.204 84.604" xmlns="http://www.w3.org/2000/svg"><g id="svgGroup" stroke-linecap="round" fill-rule="evenodd" font-size="9pt" stroke="#000" stroke-width="0" fill="#000" style="stroke:#000;stroke-width:0;fill:#000"><path d="M 80.7 55.003 L 80.7 44.703 Q 84.9 47.403 89.8 48.303 L 89.8 79.203 A 5.43 5.43 0 0 1 89.375 81.376 A 5.184 5.184 0 0 1 88.2 83.053 Q 86.6 84.603 84.4 84.603 L 5.4 84.603 Q 3.2 84.603 1.6 83.053 A 5.123 5.123 0 0 1 0.002 79.346 A 6.514 6.514 0 0 1 0 79.203 L 0 16.603 A 5.43 5.43 0 0 1 0.426 14.431 A 5.184 5.184 0 0 1 1.6 12.753 Q 3.2 11.203 5.4 11.203 L 71.1 11.203 Q 68.9 15.603 68.6 20.303 L 14.5 20.303 A 5.43 5.43 0 0 0 12.328 20.729 A 5.184 5.184 0 0 0 10.65 21.903 Q 9.1 23.503 9.1 25.703 L 9.1 48.903 A 5.536 5.536 0 0 0 9.193 49.956 Q 9.303 50.523 9.544 50.949 A 2.318 2.318 0 0 0 10.45 51.853 A 2.4 2.4 0 0 0 11.635 52.157 Q 12.372 52.157 13.229 51.752 A 6.443 6.443 0 0 0 13.7 51.503 L 24.1 45.403 Q 26.1 44.303 28.8 44.253 A 12.609 12.609 0 0 1 29.034 44.251 Q 31.587 44.251 33.5 45.303 L 49.6 54.003 A 8.87 8.87 0 0 0 52.193 54.816 Q 53.187 54.974 54.3 54.953 A 11.621 11.621 0 0 0 56.678 54.676 A 8.913 8.913 0 0 0 59 53.803 L 60 53.203 A 7.929 7.929 0 0 1 62.465 52.299 A 11.076 11.076 0 0 1 64.6 52.103 Q 67.3 52.103 69.2 53.303 L 76.1 57.503 A 6.139 6.139 0 0 0 76.811 57.893 Q 77.57 58.242 78.231 58.242 A 2.269 2.269 0 0 0 79.35 57.953 Q 80.7 57.203 80.7 55.003 Z M 110.393 6.399 A 21.766 21.766 0 0 0 94.6 0.003 A 26.124 26.124 0 0 0 94.455 0.004 A 21.826 21.826 0 0 0 78.65 6.603 A 26.134 26.134 0 0 0 78.444 6.81 A 21.681 21.681 0 0 0 72 22.603 A 26.39 26.39 0 0 0 72.002 22.896 A 21.678 21.678 0 0 0 78.65 38.603 Q 85.3 45.203 94.6 45.203 A 26.593 26.593 0 0 0 94.893 45.202 A 21.758 21.758 0 0 0 110.6 38.603 A 26.04 26.04 0 0 0 110.805 38.396 A 21.766 21.766 0 0 0 117.2 22.603 A 26.593 26.593 0 0 0 117.199 22.31 A 21.758 21.758 0 0 0 110.6 6.603 A 26.04 26.04 0 0 0 110.393 6.399 Z M 83 34.203 A 15.784 15.784 0 0 0 94.388 39.002 A 19.133 19.133 0 0 0 94.6 39.003 A 15.785 15.785 0 0 0 106.05 34.352 A 19.034 19.034 0 0 0 106.2 34.203 A 15.784 15.784 0 0 0 110.999 22.815 A 19.133 19.133 0 0 0 111 22.603 A 15.785 15.785 0 0 0 106.349 11.154 A 19.034 19.034 0 0 0 106.2 11.003 A 15.784 15.784 0 0 0 94.812 6.204 A 19.133 19.133 0 0 0 94.6 6.203 A 15.785 15.785 0 0 0 83.151 10.854 A 19.034 19.034 0 0 0 83 11.003 A 15.784 15.784 0 0 0 78.202 22.391 A 19.133 19.133 0 0 0 78.2 22.603 A 15.785 15.785 0 0 0 82.852 34.053 A 19.034 19.034 0 0 0 83 34.203 Z M 97.7 13.303 L 97.7 19.503 L 103.9 19.503 A 1.908 1.908 0 0 1 105.262 20.065 A 2.504 2.504 0 0 1 105.3 20.103 A 2.024 2.024 0 0 1 105.9 21.546 A 2.657 2.657 0 0 1 105.9 21.603 L 105.9 23.603 A 2.029 2.029 0 0 1 105.457 24.868 A 2.694 2.694 0 0 1 105.3 25.053 Q 104.7 25.703 103.9 25.703 L 97.7 25.703 L 97.7 31.803 A 2.029 2.029 0 0 1 97.257 33.068 A 2.694 2.694 0 0 1 97.1 33.253 Q 96.5 33.903 95.6 33.903 L 93.6 33.903 A 1.901 1.901 0 0 1 92.442 33.507 A 2.648 2.648 0 0 1 92.15 33.253 Q 91.5 32.603 91.5 31.803 L 91.5 25.703 L 85.4 25.703 A 1.901 1.901 0 0 1 84.242 25.307 A 2.648 2.648 0 0 1 83.95 25.053 Q 83.3 24.403 83.3 23.603 L 83.3 21.603 A 2.038 2.038 0 0 1 83.482 20.735 A 2.007 2.007 0 0 1 83.95 20.103 A 2.372 2.372 0 0 1 84.559 19.688 A 1.974 1.974 0 0 1 85.4 19.503 L 91.5 19.503 L 91.5 13.303 A 1.801 1.801 0 0 1 91.998 12.056 A 2.481 2.481 0 0 1 92.15 11.903 A 2.372 2.372 0 0 1 92.759 11.488 A 1.974 1.974 0 0 1 93.6 11.303 L 95.6 11.303 A 2.218 2.218 0 0 1 96.39 11.44 A 1.993 1.993 0 0 1 97.1 11.903 A 2.091 2.091 0 0 1 97.536 12.521 A 1.879 1.879 0 0 1 97.7 13.303 Z M 69 39.653 Q 66.9 41.803 63.9 41.803 A 6.85 6.85 0 0 1 58.899 39.753 A 8.328 8.328 0 0 1 58.8 39.653 A 7.11 7.11 0 0 1 56.7 34.506 A 10.725 10.725 0 0 1 56.7 34.503 A 6.937 6.937 0 0 1 58.735 29.469 A 8.261 8.261 0 0 1 58.8 29.403 A 6.933 6.933 0 0 1 63.807 27.304 A 8.51 8.51 0 0 1 63.9 27.303 A 6.937 6.937 0 0 1 68.935 29.338 A 8.261 8.261 0 0 1 69 29.403 A 6.933 6.933 0 0 1 71.1 34.41 A 8.51 8.51 0 0 1 71.1 34.503 A 7.11 7.11 0 0 1 69.002 39.651 A 7.613 7.613 0 0 1 69 39.653 Z" vector-effect="non-scaling-stroke"/></g></svg>