<svg width="56.303" height="90.902" viewBox="0 0 56.303 90.902" xmlns="http://www.w3.org/2000/svg"><g id="svgGroup" stroke-linecap="round" fill-rule="nonzero" font-size="9pt" stroke="#000" stroke-width="0" fill="#000" style="stroke:#000;stroke-width:0;fill:#000"><path d="M 18.702 87.702 A 14.237 14.237 0 0 1 18.475 87.911 A 10.996 10.996 0 0 1 10.902 90.902 A 12.572 12.572 0 0 1 10.761 90.901 A 10.486 10.486 0 0 1 3.202 87.702 A 12.646 12.646 0 0 1 3.102 87.601 A 10.544 10.544 0 0 1 0.002 79.952 Q 0.002 75.402 3.202 72.102 L 29.902 45.402 L 3.202 18.702 A 10.999 10.999 0 0 1 1.122 15.856 A 10.883 10.883 0 0 1 0.002 10.902 A 13.026 13.026 0 0 1 0.005 10.616 A 10.246 10.246 0 0 1 3.202 3.202 A 12.646 12.646 0 0 1 3.302 3.102 A 10.544 10.544 0 0 1 10.952 0.002 A 12.851 12.851 0 0 1 11.093 0.002 A 10.541 10.541 0 0 1 18.702 3.202 L 53.102 37.602 A 12.646 12.646 0 0 1 53.201 37.702 A 10.544 10.544 0 0 1 56.302 45.352 A 12.851 12.851 0 0 1 56.301 45.493 A 10.541 10.541 0 0 1 53.102 53.102 L 18.702 87.702 Z" vector-effect="non-scaling-stroke"/></g></svg>