<svg width="82.903" height="95.003" viewBox="0 0 82.903 95.003" xmlns="http://www.w3.org/2000/svg"><g id="svgGroup" stroke-linecap="round" fill-rule="evenodd" font-size="9pt" stroke="#000" stroke-width="0" fill="#000" style="stroke:#000;stroke-width:0;fill:#000"><path d="M 14.801 0.001 L 68.101 0.001 A 14.229 14.229 0 0 1 78.415 4.217 A 17.427 17.427 0 0 1 78.551 4.351 A 14.346 14.346 0 0 1 82.9 14.708 A 17.551 17.551 0 0 1 82.901 14.901 L 82.901 80.201 A 14.229 14.229 0 0 1 78.686 90.515 A 17.427 17.427 0 0 1 78.551 90.651 A 14.235 14.235 0 0 1 68.291 95 A 16.994 16.994 0 0 1 68.101 95.001 L 14.801 95.001 A 14.229 14.229 0 0 1 4.488 90.786 A 17.427 17.427 0 0 1 4.351 90.651 A 14.235 14.235 0 0 1 0.002 80.392 A 16.994 16.994 0 0 1 0.001 80.201 L 0.001 14.901 A 14.404 14.404 0 0 1 4.283 4.47 A 17.794 17.794 0 0 1 4.351 4.401 A 14.508 14.508 0 0 1 10.128 0.729 A 14.73 14.73 0 0 1 14.801 0.001 Z M 73.001 80.201 L 73.001 14.901 Q 73.001 12.901 71.551 11.401 A 4.966 4.966 0 0 0 69.991 10.288 A 4.615 4.615 0 0 0 68.101 9.901 L 14.801 9.901 A 4.614 4.614 0 0 0 11.442 11.309 A 5.96 5.96 0 0 0 11.351 11.401 Q 9.901 12.901 9.901 14.901 L 9.901 80.201 A 4.703 4.703 0 0 0 11.306 83.606 A 5.902 5.902 0 0 0 11.351 83.651 A 4.897 4.897 0 0 0 13.129 84.814 A 4.805 4.805 0 0 0 14.801 85.101 L 68.101 85.101 A 4.703 4.703 0 0 0 71.506 83.696 A 5.902 5.902 0 0 0 71.551 83.651 A 4.897 4.897 0 0 0 72.714 81.874 A 4.805 4.805 0 0 0 73.001 80.201 Z M 25.001 25.101 L 57.901 25.101 Q 59.201 25.101 60.101 26.001 A 2.987 2.987 0 0 1 61.001 28.161 A 3.731 3.731 0 0 1 61.001 28.201 Q 61.001 29.501 60.101 30.401 A 2.987 2.987 0 0 1 57.942 31.301 A 3.731 3.731 0 0 1 57.901 31.301 L 25.001 31.301 Q 23.701 31.301 22.801 30.401 A 2.987 2.987 0 0 1 21.901 28.242 A 3.731 3.731 0 0 1 21.901 28.201 Q 21.901 26.901 22.801 26.001 A 2.987 2.987 0 0 1 24.961 25.102 A 3.731 3.731 0 0 1 25.001 25.101 Z M 25.001 44.001 L 57.901 44.001 Q 59.201 44.001 60.101 44.901 A 2.987 2.987 0 0 1 61.001 47.061 A 3.731 3.731 0 0 1 61.001 47.101 Q 61.001 48.401 60.101 49.301 A 2.987 2.987 0 0 1 57.942 50.201 A 3.731 3.731 0 0 1 57.901 50.201 L 25.001 50.201 Q 23.701 50.201 22.801 49.301 A 2.987 2.987 0 0 1 21.901 47.142 A 3.731 3.731 0 0 1 21.901 47.101 Q 21.901 45.801 22.801 44.901 A 2.987 2.987 0 0 1 24.961 44.002 A 3.731 3.731 0 0 1 25.001 44.001 Z M 25.001 62.901 L 57.901 62.901 Q 59.201 62.901 60.101 63.801 A 2.987 2.987 0 0 1 61.001 65.961 A 3.731 3.731 0 0 1 61.001 66.001 Q 61.001 67.301 60.101 68.201 A 2.987 2.987 0 0 1 57.942 69.101 A 3.731 3.731 0 0 1 57.901 69.101 L 25.001 69.101 Q 23.701 69.101 22.801 68.201 A 2.987 2.987 0 0 1 21.901 66.042 A 3.731 3.731 0 0 1 21.901 66.001 Q 21.901 64.701 22.801 63.801 A 2.987 2.987 0 0 1 24.961 62.902 A 3.731 3.731 0 0 1 25.001 62.901 Z" vector-effect="non-scaling-stroke"/></g></svg>