<svg width="90" height="76.2" viewBox="0 0 90 76.2" xmlns="http://www.w3.org/2000/svg"><g id="svgGroup" stroke-linecap="round" fill-rule="evenodd" font-size="9pt" stroke="#000" stroke-width="0" fill="#000" style="stroke:#000;stroke-width:0;fill:#000"><path d="M 29 46.3 L 87 46.3 A 3.075 3.075 0 0 0 88.12 46.102 A 2.796 2.796 0 0 0 89.15 45.4 Q 90 44.5 90 43.3 L 90 32.9 Q 90 31.7 89.15 30.8 A 2.813 2.813 0 0 0 87.101 29.902 A 3.681 3.681 0 0 0 87 29.9 L 29 29.9 A 3.075 3.075 0 0 0 27.88 30.098 A 2.796 2.796 0 0 0 26.85 30.8 Q 26 31.7 26 32.9 L 26 43.3 Q 26 44.5 26.85 45.4 A 2.813 2.813 0 0 0 28.899 46.299 A 3.681 3.681 0 0 0 29 46.3 Z M 29 16.3 L 87 16.3 A 3.256 3.256 0 0 0 88.084 16.126 A 2.806 2.806 0 0 0 89.15 15.45 A 2.871 2.871 0 0 0 89.995 13.503 A 3.82 3.82 0 0 0 90 13.3 L 90 3 A 3.256 3.256 0 0 0 89.826 1.917 A 2.806 2.806 0 0 0 89.15 0.85 A 2.871 2.871 0 0 0 87.203 0.005 A 3.82 3.82 0 0 0 87 0 L 29 0 A 3.256 3.256 0 0 0 27.917 0.174 A 2.806 2.806 0 0 0 26.85 0.85 A 2.871 2.871 0 0 0 26.006 2.797 A 3.82 3.82 0 0 0 26 3 L 26 13.3 A 3.256 3.256 0 0 0 26.174 14.384 A 2.806 2.806 0 0 0 26.85 15.45 A 2.871 2.871 0 0 0 28.797 16.295 A 3.82 3.82 0 0 0 29 16.3 Z M 29 76.2 L 87 76.2 A 3.256 3.256 0 0 0 88.084 76.026 A 2.806 2.806 0 0 0 89.15 75.35 A 2.871 2.871 0 0 0 89.995 73.403 A 3.82 3.82 0 0 0 90 73.2 L 90 62.9 A 3.256 3.256 0 0 0 89.826 61.817 A 2.806 2.806 0 0 0 89.15 60.75 A 2.871 2.871 0 0 0 87.203 59.905 A 3.82 3.82 0 0 0 87 59.9 L 29 59.9 A 3.256 3.256 0 0 0 27.917 60.074 A 2.806 2.806 0 0 0 26.85 60.75 A 2.871 2.871 0 0 0 26.006 62.697 A 3.82 3.82 0 0 0 26 62.9 L 26 73.2 A 3.256 3.256 0 0 0 26.174 74.284 A 2.806 2.806 0 0 0 26.85 75.35 A 2.871 2.871 0 0 0 28.797 76.195 A 3.82 3.82 0 0 0 29 76.2 Z M 3 46.3 L 13.4 46.3 A 2.863 2.863 0 0 0 15.442 45.457 A 3.757 3.757 0 0 0 15.5 45.4 Q 16.4 44.5 16.4 43.3 L 16.4 32.9 A 2.863 2.863 0 0 0 15.557 30.858 A 3.757 3.757 0 0 0 15.5 30.8 Q 14.6 29.9 13.4 29.9 L 3 29.9 A 2.863 2.863 0 0 0 0.959 30.743 A 3.757 3.757 0 0 0 0.9 30.8 Q 0 31.7 0 32.9 L 0 43.3 A 2.863 2.863 0 0 0 0.843 45.342 A 3.757 3.757 0 0 0 0.9 45.4 Q 1.8 46.3 3 46.3 Z M 3 76.2 L 13.4 76.2 Q 14.6 76.2 15.5 75.35 A 2.813 2.813 0 0 0 16.399 73.301 A 3.681 3.681 0 0 0 16.4 73.2 L 16.4 62.9 A 3.075 3.075 0 0 0 16.202 61.78 A 2.796 2.796 0 0 0 15.5 60.75 Q 14.6 59.9 13.4 59.9 L 3 59.9 Q 1.8 59.9 0.9 60.75 A 2.813 2.813 0 0 0 0.002 62.799 A 3.681 3.681 0 0 0 0 62.9 L 0 73.2 A 3.075 3.075 0 0 0 0.198 74.32 A 2.796 2.796 0 0 0 0.9 75.35 Q 1.8 76.2 3 76.2 Z M 3 16.3 L 13.4 16.3 Q 14.6 16.3 15.5 15.45 A 2.813 2.813 0 0 0 16.399 13.401 A 3.681 3.681 0 0 0 16.4 13.3 L 16.4 3 A 3.075 3.075 0 0 0 16.202 1.88 A 2.796 2.796 0 0 0 15.5 0.85 Q 14.6 0 13.4 0 L 3 0 Q 1.8 0 0.9 0.85 A 2.813 2.813 0 0 0 0.002 2.899 A 3.681 3.681 0 0 0 0 3 L 0 13.3 A 3.075 3.075 0 0 0 0.198 14.42 A 2.796 2.796 0 0 0 0.9 15.45 Q 1.8 16.3 3 16.3 Z" vector-effect="non-scaling-stroke"/></g></svg>