<svg width="90.005" height="90.005" viewBox="0 0 90.005 90.005" xmlns="http://www.w3.org/2000/svg"><g id="svgGroup" stroke-linecap="round" fill-rule="nonzero" font-size="9pt" stroke="#000" stroke-width="0" fill="#000" style="stroke:#000;stroke-width:0;fill:#000"><path d="M 71.105 62.805 L 88.905 80.505 A 3.711 3.711 0 0 1 90.003 83.149 A 4.872 4.872 0 0 1 90.005 83.255 Q 90.005 84.905 88.905 86.105 L 86.105 88.905 Q 84.905 90.005 83.255 90.005 A 4.066 4.066 0 0 1 81.807 89.755 A 3.654 3.654 0 0 1 80.505 88.905 L 62.805 71.105 Q 52.405 78.805 39.405 78.805 A 37.907 37.907 0 0 1 11.917 67.613 A 45.975 45.975 0 0 1 11.555 67.255 Q 0.005 55.705 0.005 39.405 A 37.907 37.907 0 0 1 11.196 11.917 A 45.975 45.975 0 0 1 11.555 11.555 Q 23.105 0.005 39.405 0.005 A 37.907 37.907 0 0 1 66.892 11.196 A 45.975 45.975 0 0 1 67.255 11.555 Q 78.805 23.105 78.805 39.405 Q 78.805 52.405 71.105 62.805 Z M 20.055 58.755 A 26.356 26.356 0 0 0 39.052 66.803 A 31.515 31.515 0 0 0 39.405 66.805 A 26.346 26.346 0 0 0 58.502 59.004 A 32.211 32.211 0 0 0 58.755 58.755 A 26.356 26.356 0 0 0 66.803 39.757 A 31.515 31.515 0 0 0 66.805 39.405 A 26.346 26.346 0 0 0 59.004 20.307 A 32.211 32.211 0 0 0 58.755 20.055 A 26.356 26.356 0 0 0 39.757 12.007 A 31.515 31.515 0 0 0 39.405 12.005 A 26.346 26.346 0 0 0 20.307 19.805 A 32.211 32.211 0 0 0 20.055 20.055 A 26.356 26.356 0 0 0 12.007 39.052 A 31.515 31.515 0 0 0 12.005 39.405 A 26.346 26.346 0 0 0 19.805 58.502 A 32.211 32.211 0 0 0 20.055 58.755 Z" vector-effect="non-scaling-stroke"/></g></svg>