<svg width="83.001" height="92.001" viewBox="0 0 83.001 92.001" xmlns="http://www.w3.org/2000/svg"><g id="svgGroup" stroke-linecap="round" fill-rule="evenodd" font-size="9pt" stroke="#000" stroke-width="0" fill="#000" style="stroke:#000;stroke-width:0;fill:#000"><path d="M 13.501 0 L 80.801 0 A 2.112 2.112 0 0 1 82.33 0.63 A 2.638 2.638 0 0 1 82.351 0.65 A 2.189 2.189 0 0 1 82.876 1.461 A 2.169 2.169 0 0 1 83.001 2.2 L 83.001 89.8 A 2.112 2.112 0 0 1 82.371 91.33 A 2.638 2.638 0 0 1 82.351 91.35 A 2.189 2.189 0 0 1 81.54 91.876 A 2.169 2.169 0 0 1 80.801 92 L 13.501 92 A 12.953 12.953 0 0 1 4.126 88.124 A 16.341 16.341 0 0 1 4.001 88 A 13.554 13.554 0 0 1 0.836 83.214 A 13.168 13.168 0 0 1 0.001 78.5 L 0.001 13.5 A 12.953 12.953 0 0 1 3.877 4.126 A 16.341 16.341 0 0 1 4.001 4 A 13.554 13.554 0 0 1 8.787 0.836 A 13.168 13.168 0 0 1 13.501 0 Z M 50.901 58.1 L 51.501 57.8 Q 53.759 56.536 55.079 55.638 A 20.571 20.571 0 0 0 55.351 55.45 Q 56.57 54.592 58.402 53 A 82.11 82.11 0 0 0 58.801 52.65 A 12.696 12.696 0 0 0 60.895 50.311 A 10.83 10.83 0 0 0 61.901 48.5 Q 62.901 46.2 62.901 43.4 Q 62.901 36.064 57.249 31.577 A 18.196 18.196 0 0 0 57.151 31.5 Q 51.754 27.277 43.144 27.017 A 37.894 37.894 0 0 0 42.001 27 L 41.901 27 Q 34.852 27 30.1 29.228 A 16.285 16.285 0 0 0 26.101 31.85 Q 20.701 36.7 20.701 45.9 A 1.474 1.474 0 0 0 20.736 46.24 Q 20.869 46.8 21.501 46.8 L 31.401 46.8 Q 32.201 46.8 32.201 45.9 A 11.605 11.605 0 0 1 32.502 43.176 A 7.632 7.632 0 0 1 34.751 39.25 A 8.374 8.374 0 0 1 38.153 37.383 Q 39.4 37.021 40.885 36.931 A 16.702 16.702 0 0 1 41.901 36.9 A 8.452 8.452 0 0 1 42.175 36.905 Q 42.493 36.916 42.922 36.948 A 27.624 27.624 0 0 1 42.951 36.95 Q 43.578 36.999 45.092 37.327 A 57.828 57.828 0 0 1 45.201 37.35 A 14.634 14.634 0 0 1 46.802 37.793 A 11.385 11.385 0 0 1 48.051 38.3 A 6.043 6.043 0 0 1 49.618 39.4 A 7.689 7.689 0 0 1 50.301 40.15 A 4.553 4.553 0 0 1 51.299 42.968 A 5.692 5.692 0 0 1 51.301 43.1 Q 51.301 44.611 50.721 45.676 A 4.04 4.04 0 0 1 50.651 45.8 A 7.157 7.157 0 0 1 50.076 46.639 Q 49.741 47.057 49.372 47.364 A 4.207 4.207 0 0 1 49.201 47.5 Q 48.598 47.953 47.312 48.632 A 45.071 45.071 0 0 1 46.401 49.1 Q 45.401 49.7 44.801 50 L 44.301 50.2 A 52.444 52.444 0 0 0 42.85 51.041 Q 41.477 51.87 40.576 52.554 A 14.236 14.236 0 0 0 40.451 52.65 A 5.963 5.963 0 0 0 39.607 53.468 Q 38.809 54.393 38.012 55.894 A 22.991 22.991 0 0 0 37.751 56.4 Q 36.527 58.847 36.413 62.28 A 21.582 21.582 0 0 0 36.401 63 L 36.401 66.6 Q 36.401 67.235 36.904 67.366 A 1.179 1.179 0 0 0 37.201 67.4 L 46.501 67.4 Q 47.136 67.4 47.267 66.897 A 1.179 1.179 0 0 0 47.301 66.6 L 47.301 62.6 A 3.95 3.95 0 0 1 48.408 59.882 Q 48.95 59.285 49.757 58.754 A 11.163 11.163 0 0 1 50.901 58.1 Z M 77.401 18 L 77.401 6.7 L 12.301 6.7 A 5.381 5.381 0 0 0 8.402 8.299 A 6.653 6.653 0 0 0 8.351 8.35 A 5.51 5.51 0 0 0 6.963 10.571 A 5.608 5.608 0 0 0 6.701 12.3 Q 6.701 14.6 8.351 16.3 A 5.585 5.585 0 0 0 10.256 17.614 A 5.371 5.371 0 0 0 12.301 18 L 77.401 18 Z M 47.601 81.8 L 47.601 74.8 Q 47.601 74.166 47.097 74.034 A 1.179 1.179 0 0 0 46.801 74 L 37.201 74 Q 36.566 74 36.435 74.504 A 1.179 1.179 0 0 0 36.401 74.8 L 36.401 81.8 Q 36.401 82.435 36.904 82.566 A 1.179 1.179 0 0 0 37.201 82.6 L 46.801 82.6 Q 47.436 82.6 47.567 82.097 A 1.179 1.179 0 0 0 47.601 81.8 Z" vector-effect="non-scaling-stroke"/></g></svg>