<svg width="93.302" height="72.402" viewBox="0 0 93.302 72.402" xmlns="http://www.w3.org/2000/svg"><g id="svgGroup" stroke-linecap="round" fill-rule="evenodd" font-size="9pt" stroke="#000" stroke-width="0" fill="#000" style="stroke:#000;stroke-width:0;fill:#000"><path d="M 10.401 0.001 L 82.901 0.001 A 9.919 9.919 0 0 1 90.131 2.981 A 12.232 12.232 0 0 1 90.251 3.101 A 10.181 10.181 0 0 1 93.301 10.467 A 12.038 12.038 0 0 1 93.301 10.501 L 93.301 61.901 A 10.18 10.18 0 0 1 90.275 69.277 A 12.531 12.531 0 0 1 90.251 69.301 Q 87.201 72.401 82.901 72.401 L 10.401 72.401 A 9.919 9.919 0 0 1 3.17 69.421 A 12.232 12.232 0 0 1 3.051 69.301 A 10.181 10.181 0 0 1 0.001 61.935 A 12.038 12.038 0 0 1 0.001 61.901 L 0.001 10.501 A 10.18 10.18 0 0 1 3.027 3.125 A 12.531 12.531 0 0 1 3.051 3.101 Q 6.101 0.001 10.401 0.001 Z M 82.501 56.701 L 82.501 21.301 A 9.431 9.431 0 0 1 82.067 21.76 Q 81.621 22.198 81.248 22.42 A 2.269 2.269 0 0 1 81.101 22.501 L 49.501 41.301 A 5.059 5.059 0 0 1 47.779 41.911 A 6.763 6.763 0 0 1 46.651 42.001 A 6.439 6.439 0 0 1 45.446 41.894 Q 44.571 41.728 43.901 41.301 L 12.201 22.501 A 2.743 2.743 0 0 1 11.806 22.255 Q 11.415 21.967 10.954 21.469 A 10.845 10.845 0 0 1 10.801 21.301 L 10.801 56.701 A 3.86 3.86 0 0 0 11.974 59.526 A 4.824 4.824 0 0 0 12.051 59.601 Q 13.301 60.801 15.001 60.801 L 78.301 60.801 Q 80.001 60.801 81.251 59.601 A 4.019 4.019 0 0 0 82.244 58.139 A 3.973 3.973 0 0 0 82.501 56.701 Z M 75.301 11.601 L 18.101 11.601 L 43.901 26.901 A 5.865 5.865 0 0 0 45.349 27.525 Q 47.371 28.076 49.501 26.901 L 75.301 11.601 Z" vector-effect="non-scaling-stroke"/></g></svg>