<svg width="78.001" height="75.001" viewBox="0 0 78.001 75.001" xmlns="http://www.w3.org/2000/svg"><g id="svgGroup" stroke-linecap="round" fill-rule="nonzero" font-size="9pt" stroke="#000" stroke-width="0" fill="#000" style="stroke:#000;stroke-width:0;fill:#000"><path d="M 10.6 75 A 9.843 9.843 0 0 1 9.635 74.955 Q 8.76 74.869 8.065 74.618 A 3.73 3.73 0 0 1 5.95 72.85 A 3.638 3.638 0 0 1 5.517 71.108 Q 5.517 70.05 6.076 68.836 A 9.791 9.791 0 0 1 6.7 67.7 L 34.3 25.3 Q 34.894 24.363 35.576 23.718 A 4.846 4.846 0 0 1 39 22.3 Q 40.975 22.3 42.501 23.792 A 8.317 8.317 0 0 1 43.7 25.3 L 71.3 67.7 A 10.235 10.235 0 0 1 71.868 68.654 Q 72.57 70.006 72.57 71.167 A 3.515 3.515 0 0 1 72.15 72.85 A 3.578 3.578 0 0 1 70.587 74.366 Q 69.355 75 67.4 75 L 10.6 75 Z M 74.6 19.5 Q 76 19.5 77 18.55 A 3.212 3.212 0 0 0 77.693 17.615 A 3.214 3.214 0 0 0 78 16.2 L 78 3.4 A 3.89 3.89 0 0 0 78 3.357 A 3.27 3.27 0 0 0 77 1 Q 76 0 74.6 0 L 3.4 0 A 3.89 3.89 0 0 0 3.357 0.001 A 3.27 3.27 0 0 0 1 1 Q 0 2 0 3.4 L 0 16.2 A 3.855 3.855 0 0 0 0.002 16.298 A 3.1 3.1 0 0 0 1 18.55 Q 2 19.5 3.4 19.5 L 74.6 19.5 Z" vector-effect="non-scaling-stroke"/></g></svg>