<svg width="93.804" height="90.003" viewBox="0 0 93.804 90.003" xmlns="http://www.w3.org/2000/svg"><g id="svgGroup" stroke-linecap="round" fill-rule="evenodd" font-size="9pt" stroke="#000" stroke-width="0" fill="#000" style="stroke:#000;stroke-width:0;fill:#000"><path d="M 55.002 77.601 L 72.602 77.601 A 6.05 6.05 0 0 0 74.968 77.149 A 5.707 5.707 0 0 0 76.802 75.901 L 93.802 58.901 L 93.802 73.701 A 15.664 15.664 0 0 1 89.151 85.051 A 19.313 19.313 0 0 1 89.002 85.201 A 16.003 16.003 0 0 1 82.447 89.269 A 16.378 16.378 0 0 1 77.502 90.001 L 16.402 90.001 A 15.88 15.88 0 0 1 4.878 85.325 A 19.023 19.023 0 0 1 4.802 85.251 Q 0.002 80.501 0.002 73.701 L 0.002 72.701 L 3.502 72.701 A 7.293 7.293 0 0 0 5.093 74.783 Q 6.591 76.111 8.767 76.277 A 8.352 8.352 0 0 0 9.402 76.301 A 6.537 6.537 0 0 0 14.14 74.363 A 8.025 8.025 0 0 0 14.202 74.301 A 6.54 6.54 0 0 0 16.202 69.588 A 7.786 7.786 0 0 0 16.202 69.501 A 6.537 6.537 0 0 0 14.264 64.764 A 8.025 8.025 0 0 0 14.202 64.701 A 6.54 6.54 0 0 0 9.49 62.702 A 7.786 7.786 0 0 0 9.402 62.701 A 6.933 6.933 0 0 0 6.723 63.197 Q 4.697 64.037 3.502 66.301 L 0.002 66.301 L 0.002 47.901 L 3.502 47.901 A 7.293 7.293 0 0 0 5.093 49.983 Q 6.591 51.311 8.767 51.477 A 8.352 8.352 0 0 0 9.402 51.501 A 6.537 6.537 0 0 0 14.14 49.563 A 8.025 8.025 0 0 0 14.202 49.501 A 6.54 6.54 0 0 0 16.202 44.788 A 7.786 7.786 0 0 0 16.202 44.701 A 6.537 6.537 0 0 0 14.264 39.964 A 8.025 8.025 0 0 0 14.202 39.901 A 6.54 6.54 0 0 0 9.49 37.902 A 7.786 7.786 0 0 0 9.402 37.901 A 6.933 6.933 0 0 0 6.723 38.397 Q 4.697 39.237 3.502 41.501 L 0.002 41.501 L 0.002 23.701 L 3.502 23.701 A 7.293 7.293 0 0 0 5.093 25.783 Q 6.591 27.111 8.767 27.277 A 8.352 8.352 0 0 0 9.402 27.301 A 6.537 6.537 0 0 0 14.14 25.363 A 8.025 8.025 0 0 0 14.202 25.301 A 6.54 6.54 0 0 0 16.202 20.588 A 7.786 7.786 0 0 0 16.202 20.501 A 6.537 6.537 0 0 0 14.264 15.764 A 8.025 8.025 0 0 0 14.202 15.701 A 6.54 6.54 0 0 0 9.49 13.702 A 7.786 7.786 0 0 0 9.402 13.701 A 6.933 6.933 0 0 0 6.723 14.197 Q 4.697 15.037 3.502 17.301 L 0.002 17.301 L 0.002 16.301 A 15.623 15.623 0 0 1 4.653 4.901 A 18.74 18.74 0 0 1 4.802 4.751 A 15.877 15.877 0 0 1 16.296 0.001 A 19.397 19.397 0 0 1 16.402 0.001 L 77.502 0.001 Q 83.602 0.001 88.202 4.001 Q 92.802 8.001 93.602 14.001 L 68.702 38.901 L 33.702 38.901 A 4.744 4.744 0 0 0 32.114 39.158 A 4.132 4.132 0 0 0 30.552 40.151 A 4.143 4.143 0 0 0 29.303 43.145 A 5.147 5.147 0 0 0 29.302 43.201 A 4.744 4.744 0 0 0 29.559 44.79 A 4.132 4.132 0 0 0 30.552 46.351 A 4.221 4.221 0 0 0 33.46 47.596 A 5.591 5.591 0 0 0 33.702 47.601 L 60.002 47.601 L 54.302 53.301 A 6.273 6.273 0 0 0 52.996 55.153 A 5.637 5.637 0 0 0 52.502 57.501 L 52.502 75.101 A 2.385 2.385 0 0 0 53.205 76.803 A 3.132 3.132 0 0 0 53.252 76.851 A 2.614 2.614 0 0 0 54.024 77.396 A 2.349 2.349 0 0 0 55.002 77.601 Z M 33.702 26.601 L 72.402 26.601 A 4.225 4.225 0 0 0 75.462 25.341 A 5.271 5.271 0 0 0 75.502 25.301 A 4.379 4.379 0 0 0 76.554 23.68 A 4.338 4.338 0 0 0 76.802 22.201 A 4.225 4.225 0 0 0 75.543 19.142 A 5.271 5.271 0 0 0 75.502 19.101 A 4.379 4.379 0 0 0 73.882 18.05 A 4.338 4.338 0 0 0 72.402 17.801 L 33.702 17.801 A 4.556 4.556 0 0 0 32.064 18.087 A 4.122 4.122 0 0 0 30.552 19.101 Q 29.302 20.401 29.302 22.201 Q 29.302 24.001 30.552 25.301 A 4.164 4.164 0 0 0 33.584 26.6 A 5.466 5.466 0 0 0 33.702 26.601 Z M 58.402 64.401 L 58.402 56.601 L 72.102 70.301 L 64.302 70.301 L 58.402 64.401 Z" vector-effect="non-scaling-stroke"/></g></svg>