<svg width="92.9" height="93.2" viewBox="0 0 92.9 93.2" xmlns="http://www.w3.org/2000/svg"><g id="svgGroup" stroke-linecap="round" fill-rule="evenodd" font-size="9pt" stroke="#000" stroke-width="0" fill="#000" style="stroke:#000;stroke-width:0;fill:#000"><path d="M 46.3 0.4 L 83.3 9 Q 87.4 10 90.15 13.45 A 12.744 12.744 0 0 1 92.296 17.299 A 11.429 11.429 0 0 1 92.9 21 L 92.9 62.9 A 14.296 14.296 0 0 1 91.958 67.916 A 18.883 18.883 0 0 1 90.7 70.6 A 17.354 17.354 0 0 1 88.401 73.811 A 13.393 13.393 0 0 1 85.2 76.4 L 61.8 90.4 A 20.351 20.351 0 0 1 54.583 92.899 A 26.704 26.704 0 0 1 50.5 93.2 A 23.85 23.85 0 0 1 48.845 93.146 Q 47.513 93.053 46.5 92.8 L 9.5 84.2 A 12.179 12.179 0 0 1 3.099 80.172 A 15.179 15.179 0 0 1 2.75 79.75 A 12.744 12.744 0 0 1 0.604 75.901 A 11.429 11.429 0 0 1 0 72.2 L 0 30.3 A 14.296 14.296 0 0 1 0.942 25.285 A 18.883 18.883 0 0 1 2.2 22.6 A 17.354 17.354 0 0 1 4.499 19.389 A 13.393 13.393 0 0 1 7.7 16.8 L 31 2.8 A 20.351 20.351 0 0 1 38.217 0.302 A 26.704 26.704 0 0 1 42.3 0 A 23.85 23.85 0 0 1 43.955 0.054 Q 45.288 0.147 46.3 0.4 Z M 10.4 76.6 L 48.3 85.5 Q 49.5 85.7 50.2 85.7 Q 50.289 85.7 50.299 85.542 A 0.673 0.673 0 0 0 50.3 85.5 L 50.3 39.9 A 2.235 2.235 0 0 0 50.031 38.851 A 3.133 3.133 0 0 0 49.7 38.35 A 3.055 3.055 0 0 0 49.139 37.801 A 2.355 2.355 0 0 0 48.3 37.4 L 8.4 28 L 8.2 28 L 8 28 Q 7.919 28.081 7.904 28.294 A 1.484 1.484 0 0 0 7.9 28.4 L 7.9 74 Q 8.9 75.9 10.4 76.6 Z M 85.4 62.9 L 85.4 21 L 85.4 20.7 L 56.5 38 Q 56.7 39.2 56.7 39.9 L 56.7 84.6 L 58 84 L 81.4 70 Q 82.574 69.296 83.595 67.795 A 13.075 13.075 0 0 0 84.15 66.9 A 11.824 11.824 0 0 0 84.862 65.435 Q 85.181 64.631 85.311 63.888 A 5.736 5.736 0 0 0 85.4 62.9 Z M 34.9 9.2 L 12.8 22.4 L 49.8 31.1 A 9.808 9.808 0 0 1 51.667 31.821 A 8.075 8.075 0 0 1 52.9 32.6 L 80.6 16.1 L 44.6 7.7 A 14.679 14.679 0 0 0 42.997 7.52 A 12.64 12.64 0 0 0 42.3 7.5 A 19.568 19.568 0 0 0 39.165 7.737 Q 37.483 8.01 36.098 8.599 A 10.466 10.466 0 0 0 34.9 9.2 Z M 14 34.2 L 44.7 41.4 A 2.341 2.341 0 0 1 45.512 41.69 Q 46.4 42.227 46.4 43.6 L 46.4 78 A 2.41 2.41 0 0 1 46.29 78.748 A 1.904 1.904 0 0 1 45.6 79.7 Q 45.186 80.114 44.429 80.185 A 3.517 3.517 0 0 1 44.1 80.2 L 43.6 80.2 L 13 73 A 2.616 2.616 0 0 1 12.181 72.733 Q 11.2 72.203 11.2 70.8 L 11.2 36.5 A 2.528 2.528 0 0 1 11.306 35.746 A 1.912 1.912 0 0 1 12.1 34.7 A 1.839 1.839 0 0 1 13.297 34.163 Q 13.624 34.137 14 34.2 Z" vector-effect="non-scaling-stroke"/></g></svg>