<svg width="131.032" height="93" viewBox="0 0 131.032 93" xmlns="http://www.w3.org/2000/svg"><g id="svgGroup" stroke-linecap="round" fill-rule="nonzero" font-size="9pt" stroke="#000" stroke-width="0" fill="#000" style="stroke:#000;stroke-width:0;fill:#000"><path d="M 57.8 83.8 L 65.4 79.3 L 70.1 85.2 L 61.7 90.2 Q 57.53 92.795 51.384 92.985 A 31.828 31.828 0 0 1 50.4 93 A 23.85 23.85 0 0 1 48.745 92.946 Q 47.413 92.853 46.4 92.6 L 9.5 84 A 11.632 11.632 0 0 1 3.187 80.174 A 14.695 14.695 0 0 1 2.75 79.65 A 12.744 12.744 0 0 1 0.604 75.801 A 11.429 11.429 0 0 1 0 72.1 L 0 30.3 A 14.296 14.296 0 0 1 0.942 25.285 A 18.883 18.883 0 0 1 2.2 22.6 A 17.354 17.354 0 0 1 4.499 19.389 A 13.393 13.393 0 0 1 7.7 16.8 L 31 2.8 A 20.441 20.441 0 0 1 38.541 0.247 A 26.322 26.322 0 0 1 42.2 0 Q 44.2 0 46.2 0.5 L 83.1 9 A 12.364 12.364 0 0 1 89.41 12.875 A 15.44 15.44 0 0 1 89.9 13.45 A 12.747 12.747 0 0 1 92.032 17.151 A 11.236 11.236 0 0 1 92.7 21 L 92.7 60.5 L 92.5 60.6 L 85.4 51.5 Q 85.2 51.5 85.2 51.3 L 85.2 21 L 85.2 20.7 L 56.3 37.9 A 7.315 7.315 0 0 1 56.543 38.993 A 5.853 5.853 0 0 1 56.6 39.8 L 56.6 84.4 L 57.8 83.8 Z M 50.2 85.3 L 50.2 39.8 A 1.852 1.852 0 0 0 50.052 39.093 Q 49.902 38.728 49.6 38.35 A 3.055 3.055 0 0 0 49.039 37.801 A 2.355 2.355 0 0 0 48.2 37.4 L 8.4 28 L 8.2 27.9 L 8 28 Q 7.919 28.081 7.904 28.294 A 1.484 1.484 0 0 0 7.9 28.4 L 7.9 73.9 Q 8.7 75.6 10.4 76.5 L 48.2 85.4 A 1.881 1.881 0 0 0 48.396 85.452 Q 48.683 85.514 49.15 85.55 Q 49.8 85.6 50.1 85.6 Q 50.1 85.5 50.2 85.3 Z M 14 34.2 Q 13.468 34.111 13.034 34.18 A 1.847 1.847 0 0 0 12.1 34.6 A 2.801 2.801 0 0 0 11.908 34.764 A 2.149 2.149 0 0 0 11.2 36.4 L 11.2 70.7 Q 11.2 72.073 12.088 72.611 A 2.341 2.341 0 0 0 12.9 72.9 L 43.5 80 Q 43.625 80.063 43.789 80.086 A 1.494 1.494 0 0 0 44 80.1 A 2.439 2.439 0 0 0 44.663 80.009 A 2.688 2.688 0 0 0 45.5 79.6 Q 46.3 79 46.3 77.8 L 46.3 43.5 Q 46.3 42.265 45.403 41.663 A 2.904 2.904 0 0 0 44.6 41.3 L 14 34.2 Z M 34.8 9.3 L 12.8 22.4 L 49.7 31.1 A 8.428 8.428 0 0 1 51.948 32.037 A 10.32 10.32 0 0 1 52.8 32.6 L 80.4 16.1 L 44.5 7.7 A 14.679 14.679 0 0 0 42.897 7.52 A 12.64 12.64 0 0 0 42.2 7.5 A 19.235 19.235 0 0 0 39.25 7.713 Q 36.638 8.119 34.8 9.3 Z M 86.3 89.5 L 67.4 65.7 A 2.958 2.958 0 0 1 66.726 63.803 A 3.515 3.515 0 0 1 66.75 63.4 A 3.049 3.049 0 0 1 67.028 62.41 A 2.615 2.615 0 0 1 67.9 61.4 L 73.1 57.2 Q 74 56.6 75.1 56.6 A 3.013 3.013 0 0 1 76.355 56.855 Q 76.974 57.135 77.439 57.721 A 3.676 3.676 0 0 1 77.5 57.8 L 91.1 74.9 A 1.251 1.251 0 0 0 91.763 75.393 Q 91.985 75.468 92.259 75.491 A 2.979 2.979 0 0 0 92.5 75.5 A 2.085 2.085 0 0 0 93.101 75.418 A 1.64 1.64 0 0 0 93.8 75 L 127 33.8 A 3.106 3.106 0 0 1 127.587 33.278 A 2.137 2.137 0 0 1 128.8 32.9 Q 129.5 32.9 130 33.3 Q 131.549 34.211 130.773 35.87 A 4.28 4.28 0 0 1 130.6 36.2 Q 102.9 85.5 98.2 90.3 Q 96.138 92.362 93.959 92.849 A 6.21 6.21 0 0 1 92.6 93 Q 90.045 93 87.553 90.768 A 15.472 15.472 0 0 1 86.3 89.5 Z" vector-effect="non-scaling-stroke"/></g></svg>