<svg width="119.189" height="92.601" viewBox="0 0 119.189 92.601" xmlns="http://www.w3.org/2000/svg"><g id="svgGroup" stroke-linecap="round" fill-rule="nonzero" font-size="9pt" stroke="#000" stroke-width="0" fill="#000" style="stroke:#000;stroke-width:0;fill:#000"><path d="M 31.388 92.501 Q 31.188 92.501 30.988 92.451 Q 30.788 92.401 30.588 92.401 Q 23.688 90.601 18.988 85.401 A 26.763 26.763 0 0 1 13.833 76.796 A 37.336 37.336 0 0 1 11.888 69.101 A 30.846 30.846 0 0 1 11.599 64.93 A 27.005 27.005 0 0 1 12.888 56.601 Q 11.888 56.101 10.088 55.101 A 20.629 20.629 0 0 1 2.454 45.94 A 29.616 29.616 0 0 1 0.388 38.701 Q -1.112 28.301 3.188 19.501 Q 7.188 11.001 15.288 5.801 Q 23.988 0.201 34.488 0.001 Q 45.888 0.001 55.488 6.301 A 3.164 3.164 0 0 1 56.262 7.063 A 3.396 3.396 0 0 1 56.788 8.251 Q 57.088 9.501 56.388 10.501 A 3.164 3.164 0 0 1 55.626 11.274 A 3.396 3.396 0 0 1 54.438 11.801 Q 53.188 12.101 52.188 11.401 Q 44.288 6.201 35.238 6.051 A 32.362 32.362 0 0 0 34.702 6.046 A 29.149 29.149 0 0 0 18.588 10.801 A 32.854 32.854 0 0 0 17.728 11.385 A 27.329 27.329 0 0 0 8.338 22.551 A 25.568 25.568 0 0 0 6.017 33.249 A 28.69 28.69 0 0 0 6.388 37.801 A 29.259 29.259 0 0 0 6.682 39.345 Q 7.268 42.028 8.299 44.167 A 14.105 14.105 0 0 0 13.288 50.001 Q 13.476 50.063 13.683 50.184 A 3.358 3.358 0 0 1 13.938 50.351 Q 14.288 50.601 14.588 50.801 A 2.891 2.891 0 0 0 14.795 50.926 A 2.358 2.358 0 0 0 15.188 51.101 Q 20.488 41.801 29.988 38.001 Q 32.388 37.056 34.494 37.056 A 8.523 8.523 0 0 1 40.288 39.301 A 9.076 9.076 0 0 1 41.426 40.456 A 9.587 9.587 0 0 1 43.138 43.651 Q 43.628 45.179 43.603 46.756 A 10.323 10.323 0 0 1 43.288 49.101 Q 42.688 51.901 40.688 54.001 Q 38.588 56.301 35.188 57.201 Q 29.088 58.801 24.088 58.801 Q 21.588 58.801 18.588 58.301 A 21.871 21.871 0 0 0 17.61 64.734 A 21.908 21.908 0 0 0 17.888 68.201 A 40.959 40.959 0 0 0 17.927 68.463 Q 18.541 72.519 19.862 75.709 A 17.592 17.592 0 0 0 32.088 86.601 Q 33.288 86.901 33.938 87.951 Q 34.588 89.001 34.288 90.201 Q 33.588 92.501 31.388 92.501 Z M 26.478 46.873 A 25.44 25.44 0 0 0 21.288 52.601 A 24.936 24.936 0 0 0 24.383 52.789 Q 26.538 52.789 28.839 52.442 A 38.445 38.445 0 0 0 33.588 51.401 A 9.961 9.961 0 0 0 34.052 51.252 Q 34.932 50.946 35.593 50.518 A 4.067 4.067 0 0 0 37.488 47.801 Q 37.988 45.201 36.388 43.801 A 2.781 2.781 0 0 0 35.473 43.27 Q 34.124 42.801 32.088 43.601 A 21.983 21.983 0 0 0 26.478 46.873 Z M 95.288 13.901 L 118.288 36.901 Q 119.188 37.801 119.188 39.051 A 2.827 2.827 0 0 1 118.991 40.123 A 2.616 2.616 0 0 1 118.288 41.101 L 68.988 90.501 A 7.046 7.046 0 0 1 63.885 92.6 A 9.082 9.082 0 0 1 63.788 92.601 L 42.588 92.601 A 3.256 3.256 0 0 1 41.505 92.427 A 2.806 2.806 0 0 1 40.438 91.751 A 2.871 2.871 0 0 1 39.594 89.803 A 3.82 3.82 0 0 1 39.588 89.601 L 39.588 68.301 A 6.937 6.937 0 0 1 41.623 63.266 A 8.261 8.261 0 0 1 41.688 63.201 L 90.988 13.901 Q 91.888 13.001 93.138 13.001 A 2.929 2.929 0 0 1 95.26 13.873 A 3.639 3.639 0 0 1 95.288 13.901 Z M 55.488 83.701 L 64.988 83.701 L 48.488 67.201 L 48.488 76.701 L 55.488 83.701 Z" vector-effect="non-scaling-stroke"/></g></svg>