<svg width="85.601" height="85.7" viewBox="0 0 85.601 85.7" xmlns="http://www.w3.org/2000/svg"><g id="svgGroup" stroke-linecap="round" fill-rule="nonzero" font-size="9pt" stroke="#000" stroke-width="0" fill="#000" style="stroke:#000;stroke-width:0;fill:#000"><path d="M 59.9 1 L 84.7 25.8 A 3.036 3.036 0 0 1 85.6 27.964 A 3.985 3.985 0 0 1 85.6 28.05 A 3.327 3.327 0 0 1 85.396 29.235 A 2.99 2.99 0 0 1 84.7 30.3 L 31.6 83.4 A 7.696 7.696 0 0 1 28.563 85.317 A 7.778 7.778 0 0 1 26.1 85.7 L 3.2 85.7 A 2.982 2.982 0 0 1 1.025 84.777 A 3.955 3.955 0 0 1 0.95 84.7 Q 0 83.7 0 82.4 L 0 59.6 A 8.155 8.155 0 0 1 0.402 56.985 A 6.789 6.789 0 0 1 2.3 54.1 L 55.3 1 Q 56.3 0 57.65 0 A 2.973 2.973 0 0 1 59.023 0.314 A 3.041 3.041 0 0 1 59.9 1 Z M 17.2 76.1 L 27.3 76.1 L 9.6 58.3 L 9.6 68.5 L 17.2 76.1 Z" vector-effect="non-scaling-stroke"/></g></svg>