<svg width="76.205" height="95.406" viewBox="0 0 76.205 95.406" xmlns="http://www.w3.org/2000/svg"><g id="svgGroup" stroke-linecap="round" fill-rule="nonzero" font-size="9pt" stroke="#000" stroke-width="0" fill="#000" style="stroke:#000;stroke-width:0;fill:#000"><path d="M 59.904 95.406 L 16.304 95.406 A 75.312 75.312 0 0 1 18.868 86.283 Q 20.479 81.748 22.562 78.143 A 33.472 33.472 0 0 1 26.604 72.506 Q 14.904 68.906 7.454 59.156 Q 0.004 49.406 0.004 37.106 A 35.201 35.201 0 0 1 10.637 11.367 A 43.39 43.39 0 0 1 11.154 10.856 Q 22.304 0.006 38.104 0.006 Q 53.904 0.006 65.054 10.856 A 35.983 35.983 0 0 1 74.434 25.557 A 36.938 36.938 0 0 1 76.204 37.106 Q 76.204 49.406 68.754 59.156 Q 61.304 68.906 49.604 72.506 A 35.148 35.148 0 0 1 54.681 80.048 Q 56.619 83.844 58.097 88.546 A 79.52 79.52 0 0 1 59.904 95.406 Z M 48.604 54.306 L 48.604 51.006 A 2.038 2.038 0 0 0 48.422 50.137 A 2.007 2.007 0 0 0 47.954 49.506 Q 47.304 48.906 46.404 48.906 L 29.704 48.906 A 2.029 2.029 0 0 0 28.44 49.349 A 2.694 2.694 0 0 0 28.254 49.506 Q 27.604 50.106 27.604 51.006 L 27.604 54.306 A 2.038 2.038 0 0 0 27.786 55.175 A 2.007 2.007 0 0 0 28.254 55.806 A 2.372 2.372 0 0 0 28.863 56.221 A 1.974 1.974 0 0 0 29.704 56.406 L 46.404 56.406 Q 47.304 56.406 47.954 55.806 Q 48.604 55.206 48.604 54.306 Z M 55.204 31.106 L 55.204 20.406 A 2.218 2.218 0 0 0 55.068 19.616 A 1.993 1.993 0 0 0 54.604 18.906 A 2.024 2.024 0 0 0 53.162 18.307 A 2.657 2.657 0 0 0 53.104 18.306 L 48.804 18.306 A 2.218 2.218 0 0 0 48.014 18.442 A 1.993 1.993 0 0 0 47.304 18.906 A 2.024 2.024 0 0 0 46.705 20.348 A 2.657 2.657 0 0 0 46.704 20.406 L 46.704 31.106 A 2.218 2.218 0 0 0 46.84 31.896 A 1.993 1.993 0 0 0 47.304 32.606 A 2.024 2.024 0 0 0 48.746 33.205 A 2.657 2.657 0 0 0 48.804 33.206 L 53.104 33.206 A 2.218 2.218 0 0 0 53.894 33.07 A 1.993 1.993 0 0 0 54.604 32.606 A 2.024 2.024 0 0 0 55.203 31.164 A 2.657 2.657 0 0 0 55.204 31.106 Z M 23.104 33.206 L 27.404 33.206 A 2.218 2.218 0 0 0 28.194 33.07 A 1.993 1.993 0 0 0 28.904 32.606 A 2.024 2.024 0 0 0 29.503 31.164 A 2.657 2.657 0 0 0 29.504 31.106 L 29.504 20.406 A 2.218 2.218 0 0 0 29.368 19.616 A 1.993 1.993 0 0 0 28.904 18.906 A 2.024 2.024 0 0 0 27.462 18.307 A 2.657 2.657 0 0 0 27.404 18.306 L 23.104 18.306 A 2.218 2.218 0 0 0 22.314 18.442 A 1.993 1.993 0 0 0 21.604 18.906 A 2.024 2.024 0 0 0 21.005 20.348 A 2.657 2.657 0 0 0 21.004 20.406 L 21.004 31.106 A 2.218 2.218 0 0 0 21.14 31.896 A 1.993 1.993 0 0 0 21.604 32.606 A 2.024 2.024 0 0 0 23.046 33.205 A 2.657 2.657 0 0 0 23.104 33.206 Z" vector-effect="non-scaling-stroke"/></g></svg>