<svg width="76.205" height="95.406" viewBox="0 0 76.205 95.406" xmlns="http://www.w3.org/2000/svg"><g id="svgGroup" stroke-linecap="round" fill-rule="nonzero" font-size="9pt" stroke="#000" stroke-width="0" fill="#000" style="stroke:#000;stroke-width:0;fill:#000"><path d="M 59.904 95.406 L 16.304 95.406 A 75.312 75.312 0 0 1 18.868 86.283 Q 20.479 81.748 22.562 78.143 A 33.472 33.472 0 0 1 26.604 72.506 Q 14.904 68.906 7.454 59.156 Q 0.004 49.406 0.004 37.106 A 35.201 35.201 0 0 1 10.637 11.367 A 43.39 43.39 0 0 1 11.154 10.856 Q 22.304 0.006 38.104 0.006 Q 53.904 0.006 65.054 10.856 A 35.983 35.983 0 0 1 74.434 25.557 A 36.938 36.938 0 0 1 76.204 37.106 Q 76.204 49.406 68.754 59.156 Q 61.304 68.906 49.604 72.506 A 35.148 35.148 0 0 1 54.681 80.048 Q 56.619 83.844 58.097 88.546 A 79.52 79.52 0 0 1 59.904 95.406 Z M 33.704 61.606 L 42.504 61.606 A 9.701 9.701 0 0 0 49.531 58.729 A 11.926 11.926 0 0 0 49.554 58.706 Q 52.504 55.806 52.504 51.606 A 9.605 9.605 0 0 0 49.645 44.649 A 11.924 11.924 0 0 0 49.554 44.556 A 9.883 9.883 0 0 0 45.702 42.112 A 9.947 9.947 0 0 0 42.504 41.606 L 33.704 41.606 A 9.605 9.605 0 0 0 26.746 44.465 A 11.924 11.924 0 0 0 26.654 44.556 A 9.883 9.883 0 0 0 24.21 48.408 A 9.947 9.947 0 0 0 23.704 51.606 A 9.837 9.837 0 0 0 24.69 56.028 A 9.911 9.911 0 0 0 26.654 58.706 A 9.702 9.702 0 0 0 33.672 61.606 A 11.535 11.535 0 0 0 33.704 61.606 Z M 15.954 17.306 A 10.856 10.856 0 0 0 12.704 25.134 A 12.976 12.976 0 0 0 12.704 25.206 A 10.854 10.854 0 0 0 15.903 33.054 A 13.233 13.233 0 0 0 15.954 33.106 A 10.601 10.601 0 0 0 23.625 36.405 A 12.716 12.716 0 0 0 23.804 36.406 A 10.854 10.854 0 0 0 31.652 33.207 A 13.233 13.233 0 0 0 31.704 33.156 A 10.709 10.709 0 0 0 35.003 25.389 A 13.269 13.269 0 0 0 35.004 25.206 A 11.005 11.005 0 0 0 33.871 20.196 A 11.134 11.134 0 0 0 31.704 17.256 A 10.856 10.856 0 0 0 23.876 14.006 A 12.976 12.976 0 0 0 23.804 14.006 A 10.596 10.596 0 0 0 16.081 17.178 A 12.978 12.978 0 0 0 15.954 17.306 Z M 27.354 21.706 Q 28.804 23.206 28.804 25.206 Q 28.804 27.206 27.354 28.706 A 4.734 4.734 0 0 1 23.935 30.205 A 5.797 5.797 0 0 1 23.804 30.206 A 4.614 4.614 0 0 1 20.445 28.798 A 5.96 5.96 0 0 1 20.354 28.706 Q 18.904 27.206 18.904 25.206 Q 18.904 23.206 20.354 21.706 A 4.966 4.966 0 0 1 21.914 20.593 A 4.615 4.615 0 0 1 23.804 20.206 A 4.737 4.737 0 0 1 27.263 21.614 A 5.686 5.686 0 0 1 27.354 21.706 Z M 44.504 33.156 A 10.856 10.856 0 0 0 52.332 36.406 A 12.976 12.976 0 0 0 52.404 36.406 A 10.596 10.596 0 0 0 60.126 33.234 A 12.978 12.978 0 0 0 60.254 33.106 A 10.856 10.856 0 0 0 63.504 25.278 A 12.976 12.976 0 0 0 63.504 25.206 A 10.854 10.854 0 0 0 60.305 17.358 A 13.233 13.233 0 0 0 60.254 17.306 A 10.601 10.601 0 0 0 52.583 14.007 A 12.716 12.716 0 0 0 52.404 14.006 A 10.854 10.854 0 0 0 44.556 17.205 A 13.233 13.233 0 0 0 44.504 17.256 A 10.709 10.709 0 0 0 41.205 25.023 A 13.269 13.269 0 0 0 41.204 25.206 A 11.005 11.005 0 0 0 42.337 30.216 A 11.134 11.134 0 0 0 44.504 33.156 Z M 55.763 21.614 A 4.614 4.614 0 0 0 52.404 20.206 A 5.797 5.797 0 0 0 52.273 20.208 A 4.734 4.734 0 0 0 48.854 21.706 Q 47.404 23.206 47.404 25.206 Q 47.404 27.206 48.854 28.706 A 5.686 5.686 0 0 0 48.945 28.798 A 4.737 4.737 0 0 0 52.404 30.206 A 4.615 4.615 0 0 0 54.293 29.819 A 4.966 4.966 0 0 0 55.854 28.706 Q 57.304 27.206 57.304 25.206 Q 57.304 23.206 55.854 21.706 A 5.96 5.96 0 0 0 55.763 21.614 Z" vector-effect="non-scaling-stroke"/></g></svg>