<svg width="76.205" height="95.406" viewBox="0 0 76.205 95.406" xmlns="http://www.w3.org/2000/svg"><g id="svgGroup" stroke-linecap="round" fill-rule="nonzero" font-size="9pt" stroke="#000" stroke-width="0" fill="#000" style="stroke:#000;stroke-width:0;fill:#000"><path d="M 59.904 95.406 L 16.304 95.406 A 75.312 75.312 0 0 1 18.868 86.283 Q 20.479 81.748 22.562 78.143 A 33.472 33.472 0 0 1 26.604 72.506 Q 14.904 68.906 7.454 59.156 Q 0.004 49.406 0.004 37.106 A 35.201 35.201 0 0 1 10.637 11.367 A 43.39 43.39 0 0 1 11.154 10.856 Q 22.304 0.006 38.104 0.006 Q 53.904 0.006 65.054 10.856 A 35.983 35.983 0 0 1 74.434 25.557 A 36.938 36.938 0 0 1 76.204 37.106 Q 76.204 49.406 68.754 59.156 Q 61.304 68.906 49.604 72.506 A 35.148 35.148 0 0 1 54.681 80.048 Q 56.619 83.844 58.097 88.546 A 79.52 79.52 0 0 1 59.904 95.406 Z M 58.804 47.706 A 4.004 4.004 0 0 0 59.105 46.668 Q 59.261 45.587 58.754 44.506 Q 58.004 42.906 56.404 42.306 Q 54.804 41.606 38.104 41.606 A 668.631 668.631 0 0 0 34.165 41.617 Q 21.29 41.693 19.823 42.298 A 0.975 0.975 0 0 0 19.804 42.306 Q 18.204 42.906 17.454 44.506 A 4.117 4.117 0 0 0 17.123 45.528 Q 16.95 46.49 17.302 47.453 A 4.42 4.42 0 0 0 17.404 47.706 Q 19.904 54.206 25.504 58.056 Q 31.104 61.906 38.104 61.906 Q 45.004 61.906 50.654 58.056 Q 56.304 54.206 58.804 47.706 Z M 11.604 29.906 L 14.604 31.006 L 15.004 31.006 Q 15.843 31.006 16.161 30.311 A 1.627 1.627 0 0 0 16.204 30.206 Q 16.204 29.906 16.654 28.806 A 4.464 4.464 0 0 1 17.081 28.02 Q 17.569 27.292 18.433 26.47 A 15.296 15.296 0 0 1 18.554 26.356 A 4.992 4.992 0 0 1 21.973 25.007 A 6.44 6.44 0 0 1 22.104 25.006 A 7.064 7.064 0 0 1 23.069 25.069 A 5.656 5.656 0 0 1 23.754 25.206 A 5.277 5.277 0 0 1 24.474 25.452 A 4.05 4.05 0 0 1 25.054 25.756 Q 25.604 26.106 26.104 26.606 A 7.975 7.975 0 0 1 26.503 27.034 Q 26.677 27.236 26.816 27.429 A 4.476 4.476 0 0 1 26.904 27.556 Q 27.204 28.006 27.454 28.506 Q 27.66 28.918 27.764 29.194 A 3.063 3.063 0 0 1 27.804 29.306 L 28.004 29.906 L 28.104 30.206 Q 28.387 30.962 29.117 31.004 A 1.52 1.52 0 0 0 29.204 31.006 L 32.604 29.906 Q 32.936 29.795 33.115 29.623 A 0.656 0.656 0 0 0 33.304 29.306 A 0.911 0.911 0 0 0 33.446 29.037 Q 33.518 28.81 33.453 28.555 A 1.212 1.212 0 0 0 33.404 28.406 A 9.057 9.057 0 0 0 33.315 28.01 Q 33.256 27.771 33.178 27.504 A 16.667 16.667 0 0 0 33.104 27.256 Q 32.911 26.628 32.065 25.208 A 36.385 36.385 0 0 0 32.004 25.106 A 15.526 15.526 0 0 0 30.607 23.131 A 13.535 13.535 0 0 0 30.004 22.456 A 7.308 7.308 0 0 0 28.957 21.563 Q 28.059 20.924 26.804 20.356 A 10.701 10.701 0 0 0 23.527 19.481 A 13.17 13.17 0 0 0 22.104 19.406 A 13.134 13.134 0 0 0 17.537 20.148 Q 13.792 21.53 11.933 25.484 A 16.416 16.416 0 0 0 10.904 28.406 Q 10.804 28.906 10.904 29.306 Q 11.105 29.64 11.35 29.796 A 0.864 0.864 0 0 0 11.604 29.906 Z M 43.604 29.906 L 46.604 31.006 L 46.904 31.006 Q 47.743 31.006 48.061 30.311 A 1.627 1.627 0 0 0 48.104 30.206 Q 48.104 29.906 48.554 28.806 A 4.464 4.464 0 0 1 48.981 28.02 Q 49.469 27.292 50.333 26.47 A 15.296 15.296 0 0 1 50.454 26.356 A 4.992 4.992 0 0 1 53.873 25.007 A 6.44 6.44 0 0 1 54.004 25.006 A 7.064 7.064 0 0 1 54.969 25.069 A 5.656 5.656 0 0 1 55.654 25.206 A 5.277 5.277 0 0 1 56.374 25.452 A 4.05 4.05 0 0 1 56.954 25.756 Q 57.504 26.106 58.004 26.606 A 7.975 7.975 0 0 1 58.403 27.034 Q 58.577 27.236 58.716 27.429 A 4.476 4.476 0 0 1 58.804 27.556 Q 59.104 28.006 59.354 28.506 Q 59.56 28.918 59.664 29.194 A 3.063 3.063 0 0 1 59.704 29.306 L 59.904 29.906 L 60.004 30.206 Q 60.304 31.006 61.204 31.006 L 64.504 29.906 Q 64.836 29.795 65.015 29.623 A 0.656 0.656 0 0 0 65.204 29.306 A 0.911 0.911 0 0 0 65.346 29.037 Q 65.418 28.81 65.353 28.555 A 1.212 1.212 0 0 0 65.304 28.406 A 9.057 9.057 0 0 0 65.215 28.01 Q 65.156 27.771 65.078 27.504 A 16.667 16.667 0 0 0 65.004 27.256 Q 64.811 26.628 63.965 25.208 A 36.385 36.385 0 0 0 63.904 25.106 A 15.526 15.526 0 0 0 62.507 23.131 A 13.535 13.535 0 0 0 61.904 22.456 A 7.308 7.308 0 0 0 60.857 21.563 Q 59.959 20.924 58.704 20.356 A 10.82 10.82 0 0 0 54.799 19.425 A 12.735 12.735 0 0 0 54.104 19.406 Q 45.004 19.406 42.804 28.406 Q 42.617 28.873 42.867 29.253 A 1.042 1.042 0 0 0 42.904 29.306 Q 42.982 29.619 43.365 29.809 A 1.855 1.855 0 0 0 43.604 29.906 Z" vector-effect="non-scaling-stroke"/></g></svg>