<svg width="76.205" height="95.406" viewBox="0 0 76.205 95.406" xmlns="http://www.w3.org/2000/svg"><g id="svgGroup" stroke-linecap="round" fill-rule="nonzero" font-size="9pt" stroke="#000" stroke-width="0" fill="#000" style="stroke:#000;stroke-width:0;fill:#000"><path d="M 59.904 95.406 L 16.304 95.406 A 75.312 75.312 0 0 1 18.868 86.283 Q 20.479 81.748 22.562 78.143 A 33.472 33.472 0 0 1 26.604 72.506 Q 14.904 68.906 7.454 59.156 Q 0.004 49.406 0.004 37.106 A 35.201 35.201 0 0 1 10.637 11.367 A 43.39 43.39 0 0 1 11.154 10.856 Q 22.304 0.006 38.104 0.006 Q 53.904 0.006 65.054 10.856 A 35.983 35.983 0 0 1 74.434 25.557 A 36.938 36.938 0 0 1 76.204 37.106 Q 76.204 49.406 68.754 59.156 Q 61.304 68.906 49.604 72.506 A 35.148 35.148 0 0 1 54.681 80.048 Q 56.619 83.844 58.097 88.546 A 79.52 79.52 0 0 1 59.904 95.406 Z M 62.704 51.206 L 59.704 48.206 Q 57.624 46.286 56.696 45.646 A 3.408 3.408 0 0 0 56.304 45.406 A 9.582 9.582 0 0 0 51.67 44.203 Q 50.533 44.203 49.352 44.469 A 12.09 12.09 0 0 0 48.804 44.606 Q 47.027 45.05 45.141 46.59 A 17.99 17.99 0 0 0 43.804 47.806 Q 43.507 48.202 42.865 48.992 A 108.324 108.324 0 0 1 42.854 49.006 Q 42.272 49.722 41.891 50.197 A 115.658 115.658 0 0 0 41.804 50.306 Q 41.493 50.695 41.001 51.114 A 9.807 9.807 0 0 1 40.704 51.356 Q 40.004 51.906 39.304 52.106 A 3.757 3.757 0 0 1 38.324 52.238 Q 36.231 52.238 34.204 49.806 A 45.819 45.819 0 0 0 32.96 48.425 Q 31.179 46.531 29.904 45.706 Q 27.05 43.803 23.381 44.344 A 12.259 12.259 0 0 0 23.004 44.406 A 8.475 8.475 0 0 0 19.828 45.535 Q 18.745 46.169 17.689 47.14 A 16.214 16.214 0 0 0 17.204 47.606 L 14.704 50.106 L 14.304 50.506 L 13.854 50.956 L 13.404 51.406 A 2.052 2.052 0 0 0 13.255 51.571 Q 13.103 51.76 13.061 51.927 A 0.572 0.572 0 0 0 13.054 51.956 Q 13.004 52.206 12.954 52.506 Q 12.904 52.806 13.004 53.056 A 1.113 1.113 0 0 0 13.102 53.242 Q 13.157 53.328 13.232 53.419 A 2.765 2.765 0 0 0 13.404 53.606 Q 14.866 55.312 15.603 55.83 A 1.718 1.718 0 0 0 15.904 56.006 Q 16.287 56.083 16.552 56.13 A 14.128 14.128 0 0 0 16.704 56.156 Q 16.967 56.2 17.384 55.936 A 3.1 3.1 0 0 0 17.504 55.856 A 6.65 6.65 0 0 0 17.761 55.667 Q 17.99 55.49 18.128 55.343 A 1.464 1.464 0 0 0 18.204 55.256 Q 18.404 55.006 18.854 54.556 L 19.404 54.006 Q 19.604 53.806 20.354 53.006 Q 21.104 52.206 21.454 51.856 Q 21.77 51.54 22.372 51.101 A 17.067 17.067 0 0 1 22.504 51.006 Q 22.996 50.655 23.414 50.476 A 2.631 2.631 0 0 1 23.754 50.356 A 3.942 3.942 0 0 1 24.273 50.254 Q 24.542 50.218 24.847 50.209 A 7.088 7.088 0 0 1 25.054 50.206 A 2.848 2.848 0 0 1 26.372 50.535 A 3.403 3.403 0 0 1 26.504 50.606 Q 27.334 51.104 28.508 52.394 A 25.148 25.148 0 0 1 29.004 52.956 Q 30.408 54.594 30.848 55.049 A 4.788 4.788 0 0 0 30.904 55.106 A 12.102 12.102 0 0 0 33.039 56.829 A 8.65 8.65 0 0 0 36.504 58.106 A 11.835 11.835 0 0 0 37.969 58.236 Q 41.066 58.312 43.504 56.606 Q 44.802 55.772 47.389 52.874 A 78.632 78.632 0 0 0 47.804 52.406 A 9.699 9.699 0 0 1 48.838 51.382 Q 51.205 49.392 53.504 50.706 A 1.945 1.945 0 0 1 53.674 50.842 Q 54.175 51.277 55.804 52.906 Q 57.182 54.284 58.033 55.193 A 36.356 36.356 0 0 1 58.504 55.706 Q 58.745 55.947 58.987 56.059 A 1.123 1.123 0 0 0 59.104 56.106 A 1.26 1.26 0 0 0 59.498 56.173 Q 59.501 56.173 59.504 56.173 A 1.215 1.215 0 0 0 59.704 56.156 Q 60.002 56.106 60.202 56.057 A 3.836 3.836 0 0 0 60.204 56.056 Q 60.373 56.014 60.614 55.828 A 3.007 3.007 0 0 0 60.704 55.756 Q 60.951 55.55 61.097 55.412 A 3.145 3.145 0 0 0 61.154 55.356 L 61.604 54.906 L 62.004 54.506 Q 63.904 52.606 62.704 51.206 Z M 21.004 20.406 L 21.004 31.106 A 2.218 2.218 0 0 0 21.14 31.896 A 1.993 1.993 0 0 0 21.604 32.606 A 2.024 2.024 0 0 0 23.046 33.205 A 2.657 2.657 0 0 0 23.104 33.206 L 27.404 33.206 A 2.218 2.218 0 0 0 28.194 33.07 A 1.993 1.993 0 0 0 28.904 32.606 A 2.024 2.024 0 0 0 29.503 31.164 A 2.657 2.657 0 0 0 29.504 31.106 L 29.504 20.406 A 2.218 2.218 0 0 0 29.368 19.616 A 1.993 1.993 0 0 0 28.904 18.906 A 2.024 2.024 0 0 0 27.462 18.307 A 2.657 2.657 0 0 0 27.404 18.306 L 23.104 18.306 A 2.218 2.218 0 0 0 22.314 18.442 A 1.993 1.993 0 0 0 21.604 18.906 A 2.024 2.024 0 0 0 21.005 20.348 A 2.657 2.657 0 0 0 21.004 20.406 Z M 46.704 20.406 L 46.704 31.106 A 2.218 2.218 0 0 0 46.84 31.896 A 1.993 1.993 0 0 0 47.304 32.606 A 2.024 2.024 0 0 0 48.746 33.205 A 2.657 2.657 0 0 0 48.804 33.206 L 53.104 33.206 A 2.218 2.218 0 0 0 53.894 33.07 A 1.993 1.993 0 0 0 54.604 32.606 A 2.024 2.024 0 0 0 55.203 31.164 A 2.657 2.657 0 0 0 55.204 31.106 L 55.204 20.406 A 2.218 2.218 0 0 0 55.068 19.616 A 1.993 1.993 0 0 0 54.604 18.906 A 2.024 2.024 0 0 0 53.162 18.307 A 2.657 2.657 0 0 0 53.104 18.306 L 48.804 18.306 A 2.218 2.218 0 0 0 48.014 18.442 A 1.993 1.993 0 0 0 47.304 18.906 A 2.024 2.024 0 0 0 46.705 20.348 A 2.657 2.657 0 0 0 46.704 20.406 Z" vector-effect="non-scaling-stroke"/></g></svg>