<svg width="76.205" height="95.406" viewBox="0 0 76.205 95.406" xmlns="http://www.w3.org/2000/svg"><g id="svgGroup" stroke-linecap="round" fill-rule="nonzero" font-size="9pt" stroke="#000" stroke-width="0" fill="#000" style="stroke:#000;stroke-width:0;fill:#000"><path d="M 59.904 95.406 L 16.304 95.406 A 75.312 75.312 0 0 1 18.868 86.283 Q 20.479 81.748 22.562 78.143 A 33.472 33.472 0 0 1 26.604 72.506 Q 14.904 68.906 7.454 59.156 Q 0.004 49.406 0.004 37.106 A 35.201 35.201 0 0 1 10.637 11.367 A 43.39 43.39 0 0 1 11.154 10.856 Q 22.304 0.006 38.104 0.006 Q 53.904 0.006 65.054 10.856 A 35.983 35.983 0 0 1 74.434 25.557 A 36.938 36.938 0 0 1 76.204 37.106 Q 76.204 49.406 68.754 59.156 Q 61.304 68.906 49.604 72.506 A 35.148 35.148 0 0 1 54.681 80.048 Q 56.619 83.844 58.097 88.546 A 79.52 79.52 0 0 1 59.904 95.406 Z M 56.104 45.306 L 52.404 44.106 L 51.904 44.006 A 1.825 1.825 0 0 0 51.362 44.081 Q 50.792 44.258 50.557 44.853 A 1.907 1.907 0 0 0 50.504 45.006 L 50.404 45.306 A 2.13 2.13 0 0 1 50.336 45.43 Q 50.234 45.604 50.054 45.856 A 79.738 79.738 0 0 0 49.852 46.14 Q 49.763 46.267 49.663 46.408 A 157.752 157.752 0 0 0 49.454 46.706 Q 49.104 47.206 48.604 47.756 A 8.666 8.666 0 0 1 47.997 48.358 A 11.365 11.365 0 0 1 47.404 48.856 A 7.769 7.769 0 0 1 46.537 49.443 A 9.993 9.993 0 0 1 45.754 49.856 A 22.588 22.588 0 0 1 44.377 50.451 A 26.533 26.533 0 0 1 43.704 50.706 Q 42.638 51.094 41.244 51.293 A 17.255 17.255 0 0 1 41.154 51.306 Q 39.704 51.506 38.104 51.506 A 21.162 21.162 0 0 1 35.096 51.3 A 17.196 17.196 0 0 1 32.954 50.856 A 20.045 20.045 0 0 1 31.593 50.43 Q 30.259 49.957 29.412 49.395 A 5.938 5.938 0 0 1 29.354 49.356 A 10.169 10.169 0 0 1 27.405 47.644 A 9.448 9.448 0 0 1 27.204 47.406 A 25.963 25.963 0 0 1 26.806 46.908 Q 26.269 46.218 26.072 45.841 A 2.155 2.155 0 0 1 26.054 45.806 Q 25.848 45.394 25.744 45.118 A 3.063 3.063 0 0 1 25.704 45.006 Q 25.404 44.006 24.304 44.006 L 20.104 45.306 Q 19.636 45.507 19.391 45.797 A 1.129 1.129 0 0 0 19.204 46.106 A 1.883 1.883 0 0 0 19.084 46.403 Q 18.955 46.833 19.104 47.206 Q 19.404 48.006 19.704 48.606 Q 19.985 49.167 21.36 50.999 A 100.196 100.196 0 0 0 21.554 51.256 Q 23.104 53.306 24.954 54.656 A 12.387 12.387 0 0 0 26.417 55.561 Q 27.992 56.403 30.281 57.181 A 40.543 40.543 0 0 0 30.354 57.206 A 22.915 22.915 0 0 0 35.793 58.311 A 27.601 27.601 0 0 0 38.104 58.406 A 26.721 26.721 0 0 0 42.785 58.011 A 21.988 21.988 0 0 0 45.804 57.256 Q 48.263 56.448 49.957 55.467 A 11.926 11.926 0 0 0 51.254 54.606 Q 53.204 53.106 54.604 51.356 Q 55.713 49.969 56.226 49.054 A 5.767 5.767 0 0 0 56.454 48.606 Q 56.879 47.662 56.992 47.252 A 1.998 1.998 0 0 0 57.004 47.206 A 1.028 1.028 0 0 0 57.144 46.821 Q 57.176 46.601 57.106 46.364 A 1.546 1.546 0 0 0 57.004 46.106 Q 56.804 45.606 56.104 45.306 Z M 62.404 35.406 L 63.204 33.106 A 2.875 2.875 0 0 0 63.289 32.797 Q 63.554 31.553 62.304 31.106 L 49.904 26.606 L 61.304 20.006 Q 62.576 19.125 61.933 17.861 A 2.699 2.699 0 0 0 61.904 17.806 L 60.704 15.706 Q 59.804 14.406 58.504 15.106 L 41.404 25.006 A 1.243 1.243 0 0 0 40.947 25.543 Q 40.66 26.144 40.697 27.25 A 8.365 8.365 0 0 0 40.704 27.406 A 5.102 5.102 0 0 0 40.799 28.167 Q 41.036 29.299 41.804 29.606 L 60.404 36.306 A 2.875 2.875 0 0 0 60.713 36.391 Q 61.957 36.656 62.404 35.406 Z M 27.404 18.306 L 23.104 18.306 A 2.218 2.218 0 0 0 22.314 18.442 A 1.993 1.993 0 0 0 21.604 18.906 A 2.024 2.024 0 0 0 21.005 20.348 A 2.657 2.657 0 0 0 21.004 20.406 L 21.004 31.106 A 2.218 2.218 0 0 0 21.14 31.896 A 1.993 1.993 0 0 0 21.604 32.606 A 2.024 2.024 0 0 0 23.046 33.205 A 2.657 2.657 0 0 0 23.104 33.206 L 27.404 33.206 A 2.218 2.218 0 0 0 28.194 33.07 A 1.993 1.993 0 0 0 28.904 32.606 A 2.024 2.024 0 0 0 29.503 31.164 A 2.657 2.657 0 0 0 29.504 31.106 L 29.504 20.406 A 2.218 2.218 0 0 0 29.368 19.616 A 1.993 1.993 0 0 0 28.904 18.906 A 2.024 2.024 0 0 0 27.462 18.307 A 2.657 2.657 0 0 0 27.404 18.306 Z" vector-effect="non-scaling-stroke"/></g></svg>