<svg width="89.601" height="89.601" viewBox="0 0 89.601 89.601" xmlns="http://www.w3.org/2000/svg"><g id="svgGroup" stroke-linecap="round" fill-rule="nonzero" font-size="9pt" stroke="#000" stroke-width="0" fill="#000" style="stroke:#000;stroke-width:0;fill:#000"><path d="M 33.201 82.701 L 33.201 56.401 L 6.901 56.401 A 6.925 6.925 0 0 1 3.96 55.785 A 6.795 6.795 0 0 1 2.001 54.401 A 6.651 6.651 0 0 1 0.001 49.591 A 8.347 8.347 0 0 1 0.001 49.501 L 0.001 40.101 A 6.925 6.925 0 0 1 0.616 37.16 A 6.795 6.795 0 0 1 2.001 35.201 A 6.651 6.651 0 0 1 6.81 33.201 A 8.347 8.347 0 0 1 6.901 33.201 L 33.201 33.201 L 33.201 6.801 A 6.45 6.45 0 0 1 35.156 2.095 A 8.095 8.095 0 0 1 35.251 2.001 Q 37.301 0.001 40.101 0.001 L 49.501 0.001 A 6.925 6.925 0 0 1 52.441 0.616 A 6.795 6.795 0 0 1 54.401 2.001 A 6.651 6.651 0 0 1 56.4 6.81 A 8.347 8.347 0 0 1 56.401 6.901 L 56.401 33.201 L 82.801 33.201 A 6.45 6.45 0 0 1 87.506 35.156 A 8.095 8.095 0 0 1 87.601 35.251 Q 89.601 37.301 89.601 40.101 L 89.601 49.501 A 6.925 6.925 0 0 1 88.985 52.441 A 6.795 6.795 0 0 1 87.601 54.401 A 6.651 6.651 0 0 1 82.791 56.4 A 8.347 8.347 0 0 1 82.701 56.401 L 56.401 56.401 L 56.401 82.801 A 6.45 6.45 0 0 1 54.445 87.506 A 8.095 8.095 0 0 1 54.351 87.601 Q 52.301 89.601 49.501 89.601 L 40.101 89.601 A 6.925 6.925 0 0 1 37.16 88.985 A 6.795 6.795 0 0 1 35.201 87.601 A 6.651 6.651 0 0 1 33.201 82.791 A 8.347 8.347 0 0 1 33.201 82.701 Z" vector-effect="non-scaling-stroke"/></g></svg>