<svg width="80.047" height="80.863" viewBox="0 0 80.047 80.863" xmlns="http://www.w3.org/2000/svg"><g id="svgGroup" stroke-linecap="round" fill-rule="evenodd" font-size="9pt" stroke="#000" stroke-width="0" fill="#000" style="stroke:#000;stroke-width:0;fill:#000"><path d="M 41.001 57.162 L 21.001 77.262 A 11.838 11.838 0 0 1 12.46 80.861 A 14.353 14.353 0 0 1 12.301 80.862 A 11.839 11.839 0 0 1 3.714 77.373 A 14.281 14.281 0 0 1 3.601 77.262 A 11.893 11.893 0 0 1 0.002 68.672 A 14.634 14.634 0 0 1 0.001 68.512 A 12.108 12.108 0 0 1 1.407 62.68 A 12.504 12.504 0 0 1 3.601 59.762 L 23.201 40.162 A 28.782 28.782 0 0 1 20.802 32.977 Q 19.991 28.652 20.701 24.312 A 25.334 25.334 0 0 1 26.114 12.416 A 32.275 32.275 0 0 1 28.301 9.962 A 42.207 42.207 0 0 1 33.317 5.644 A 32.86 32.86 0 0 1 38.051 2.762 Q 41.651 0.979 44.641 0.366 A 15.514 15.514 0 0 1 46.951 0.062 Q 49.885 -0.091 52.441 0.134 A 30.254 30.254 0 0 1 54.001 0.312 A 25.804 25.804 0 0 1 55.849 0.636 Q 57.565 1.006 58.69 1.554 A 7.094 7.094 0 0 1 58.901 1.662 L 60.601 2.462 A 3.635 3.635 0 0 1 61.315 3.074 A 2.531 2.531 0 0 1 61.951 4.462 A 2.495 2.495 0 0 1 61.971 4.771 Q 61.971 5.481 61.55 6.118 A 3.501 3.501 0 0 1 61.101 6.662 L 44.301 23.462 A 3.326 3.326 0 0 0 43.301 25.866 A 4.17 4.17 0 0 0 43.301 25.912 A 3.462 3.462 0 0 0 43.609 27.382 A 3.398 3.398 0 0 0 44.301 28.362 L 51.601 35.662 A 3.27 3.27 0 0 0 53.957 36.661 A 3.89 3.89 0 0 0 54.001 36.662 Q 55.401 36.662 56.401 35.662 L 73.201 18.862 A 3.898 3.898 0 0 1 73.898 18.349 Q 74.529 17.992 75.19 17.992 A 2.508 2.508 0 0 1 75.501 18.012 A 2.573 2.573 0 0 1 77.048 18.798 A 3.826 3.826 0 0 1 77.501 19.362 A 6.435 6.435 0 0 1 77.761 19.79 Q 78.016 20.246 78.305 20.894 A 23.13 23.13 0 0 1 78.401 21.112 A 7.137 7.137 0 0 1 78.647 21.785 Q 78.967 22.796 79.356 24.648 A 82.337 82.337 0 0 1 79.601 25.862 A 23.953 23.953 0 0 1 80.047 30.443 A 23.691 23.691 0 0 1 79.901 33.062 Q 79.501 36.662 77.051 41.762 A 32.782 32.782 0 0 1 73.23 47.829 A 42.153 42.153 0 0 1 69.901 51.562 A 26.453 26.453 0 0 1 61.784 57.284 A 24.825 24.825 0 0 1 56.201 59.012 Q 48.401 60.462 41.001 57.162 Z M 11.801 74.462 A 5.181 5.181 0 0 0 15.551 72.911 A 6.534 6.534 0 0 0 15.601 72.862 Q 17.201 71.262 17.201 68.962 Q 17.201 66.662 15.601 65.012 A 5.486 5.486 0 0 0 13.881 63.787 A 5.085 5.085 0 0 0 11.801 63.362 A 5.214 5.214 0 0 0 8.002 64.91 A 6.31 6.31 0 0 0 7.901 65.012 Q 6.301 66.662 6.301 68.962 A 5.442 5.442 0 0 0 6.861 71.439 A 5.5 5.5 0 0 0 7.901 72.862 Q 9.501 74.462 11.801 74.462 Z" vector-effect="non-scaling-stroke"/></g></svg>