<svg width="91.137" height="92.002" viewBox="0 0 91.137 92.002" xmlns="http://www.w3.org/2000/svg"><g id="svgGroup" stroke-linecap="round" fill-rule="nonzero" font-size="9pt" stroke="#000" stroke-width="0" fill="#000" style="stroke:#000;stroke-width:0;fill:#000"><path d="M 85.518 20.402 L 91.118 90.302 A 1.773 1.773 0 0 1 91.136 90.52 Q 91.136 90.535 91.136 90.55 A 1.379 1.379 0 0 1 90.768 91.502 A 1.465 1.465 0 0 1 89.705 92 A 1.897 1.897 0 0 1 89.618 92.002 L 1.518 92.002 A 1.598 1.598 0 0 1 0.917 91.892 A 1.473 1.473 0 0 1 0.368 91.502 Q -0.082 91.002 0.018 90.302 L 5.518 20.402 A 2.713 2.713 0 0 1 5.689 19.699 Q 6.011 18.904 6.854 18.743 A 2.47 2.47 0 0 1 7.318 18.702 L 25.118 18.702 Q 25.818 10.802 31.668 5.402 Q 37.518 0.002 45.518 0.002 Q 53.518 0.002 59.418 5.402 Q 65.318 10.802 66.018 18.702 L 83.818 18.702 A 1.634 1.634 0 0 1 85.003 19.187 A 2.007 2.007 0 0 1 85.018 19.202 A 1.635 1.635 0 0 1 85.518 20.38 A 1.948 1.948 0 0 1 85.518 20.402 Z M 31.818 18.702 L 59.318 18.702 Q 58.618 13.102 54.968 9.552 Q 51.318 6.002 45.518 6.002 A 17.092 17.092 0 0 0 41.557 6.435 A 11.35 11.35 0 0 0 35.968 9.502 A 14.271 14.271 0 0 0 32.441 15.63 A 19.31 19.31 0 0 0 31.818 18.702 Z" vector-effect="non-scaling-stroke"/></g></svg>