<svg width="56.503" height="101.803" viewBox="0 0 56.503 101.803" xmlns="http://www.w3.org/2000/svg"><g id="svgGroup" stroke-linecap="round" fill-rule="evenodd" font-size="9pt" stroke="#000" stroke-width="0" fill="#000" style="stroke:#000;stroke-width:0;fill:#000"><path d="M 14.303 60.003 L 19.003 55.703 L 13.603 52.303 Q 7.203 48.403 3.603 42.003 Q 0.003 35.603 0.003 28.203 Q 0.003 16.603 8.303 8.303 Q 16.603 0.003 28.203 0.003 A 27.224 27.224 0 0 1 47.942 8.046 A 33.08 33.08 0 0 1 48.203 8.303 Q 56.503 16.603 56.503 28.203 Q 56.503 35.603 52.903 42.003 Q 49.303 48.403 42.903 52.303 L 37.503 55.603 L 42.103 60.003 A 21.246 21.246 0 0 1 46.874 66.573 A 19.629 19.629 0 0 1 48.603 74.803 L 48.603 101.803 L 7.903 101.803 L 7.903 74.803 A 19.81 19.81 0 0 1 13.909 60.393 A 25.321 25.321 0 0 1 14.303 60.003 Z" vector-effect="non-scaling-stroke"/></g></svg>