<svg width="109.302" height="85.803" viewBox="0 0 109.302 85.803" xmlns="http://www.w3.org/2000/svg"><g id="svgGroup" stroke-linecap="round" fill-rule="evenodd" font-size="9pt" stroke="#000" stroke-width="0" fill="#000" style="stroke:#000;stroke-width:0;fill:#000"><path d="M 67.002 44.103 L 62.402 46.903 L 66.302 50.603 A 16.111 16.111 0 0 1 71.785 62.29 A 19.914 19.914 0 0 1 71.802 63.103 L 71.802 85.803 L 37.502 85.803 L 37.502 63.103 A 16.475 16.475 0 0 1 42.488 51.005 A 20.139 20.139 0 0 1 42.902 50.603 L 46.902 46.903 L 42.302 44.103 Q 36.902 40.803 33.902 35.403 Q 30.902 30.003 30.902 23.803 A 22.979 22.979 0 0 1 37.744 7.113 A 28.101 28.101 0 0 1 37.852 7.003 A 22.724 22.724 0 0 1 54.296 0.005 A 27.251 27.251 0 0 1 54.602 0.003 A 22.837 22.837 0 0 1 71.234 6.786 A 27.507 27.507 0 0 1 71.452 7.003 Q 78.402 14.003 78.402 23.803 Q 78.402 30.003 75.402 35.403 Q 72.402 40.803 67.002 44.103 Z M 100.802 48.503 L 97.302 50.603 L 100.302 53.303 Q 104.302 57.103 104.302 62.703 L 104.302 79.603 L 78.702 79.603 L 78.702 62.703 A 12.452 12.452 0 0 1 82.519 53.579 A 15.796 15.796 0 0 1 82.802 53.303 L 85.702 50.603 L 82.302 48.503 Q 79.002 46.503 76.802 43.203 Q 84.102 34.803 84.102 23.803 A 25.244 25.244 0 0 0 83.968 21.288 Q 83.796 19.572 83.402 17.603 Q 87.102 15.603 91.502 15.603 A 17.142 17.142 0 0 1 103.939 20.642 A 20.53 20.53 0 0 1 104.102 20.803 A 17.026 17.026 0 0 1 109.301 33.076 A 20.358 20.358 0 0 1 109.302 33.303 Q 109.302 38.003 107.052 42.003 Q 104.802 46.003 100.802 48.503 Z M 27.002 48.503 L 23.602 50.603 L 26.502 53.303 A 13.174 13.174 0 0 1 29.64 57.751 A 12.652 12.652 0 0 1 30.602 62.703 L 30.602 79.603 L 5.002 79.603 L 5.002 62.703 A 12.858 12.858 0 0 1 6.233 57.045 A 12.847 12.847 0 0 1 9.002 53.303 L 12.002 50.603 L 8.502 48.503 Q 4.502 46.003 2.252 42.003 Q 0.002 38.003 0.002 33.303 A 17.02 17.02 0 0 1 5.041 20.966 A 20.807 20.807 0 0 1 5.202 20.803 A 17.136 17.136 0 0 1 17.571 15.605 A 20.915 20.915 0 0 1 17.802 15.603 Q 22.202 15.603 25.902 17.603 Q 25.303 20.597 25.216 23.006 A 22.206 22.206 0 0 0 25.202 23.803 Q 25.202 34.803 32.502 43.203 Q 30.302 46.503 27.002 48.503 Z" vector-effect="non-scaling-stroke"/></g></svg>