<svg width="44" height="94.201" viewBox="0 0 44 94.201" xmlns="http://www.w3.org/2000/svg"><g id="svgGroup" stroke-linecap="round" fill-rule="nonzero" font-size="9pt" stroke="#000" stroke-width="0" fill="#000" style="stroke:#000;stroke-width:0;fill:#000"><path d="M 29.5 94.201 L 11.8 94.201 L 11.8 47.001 L 0 47.001 L 0 30.701 L 11.8 30.701 L 11.8 21.301 A 56.056 56.056 0 0 1 11.802 20.886 Q 11.849 14.493 13.362 10.083 A 16.459 16.459 0 0 1 15.9 5.251 A 10.293 10.293 0 0 1 16.522 4.526 Q 19.603 1.257 25.787 0.35 A 36.019 36.019 0 0 1 31 0.001 L 44 0.001 L 44 16.201 L 35.7 16.201 A 25.338 25.338 0 0 0 35.639 16.201 Q 32.695 16.208 31.267 16.902 A 2.622 2.622 0 0 0 30.3 17.651 Q 29.475 18.738 29.269 21.035 A 18.699 18.699 0 0 0 29.2 22.701 L 29.2 31.001 L 44 31.001 L 42.2 47.201 L 29.2 47.201 L 29.5 94.201 Z" vector-effect="non-scaling-stroke"/></g></svg>