<svg width="90.656" height="99.104" viewBox="0 0 90.656 99.104" xmlns="http://www.w3.org/2000/svg"><g id="svgGroup" stroke-linecap="round" fill-rule="nonzero" font-size="9pt" stroke="#000" stroke-width="0" fill="#000" style="stroke:#000;stroke-width:0;fill:#000"><path d="M 89.618 78.603 L 1.018 78.603 L 4.518 30.903 A 8.149 8.149 0 0 1 7.017 25.5 A 10.469 10.469 0 0 1 7.168 25.353 A 8.577 8.577 0 0 1 9.761 23.609 A 7.759 7.759 0 0 1 12.818 23.003 L 22.218 23.003 Q 22.618 13.403 29.268 6.703 A 21.765 21.765 0 0 1 45.025 0.004 A 26.199 26.199 0 0 1 45.318 0.003 A 21.76 21.76 0 0 1 61.159 6.495 A 26.523 26.523 0 0 1 61.368 6.703 Q 68.018 13.403 68.418 23.003 L 77.818 23.003 Q 81.018 23.003 83.468 25.353 A 8.787 8.787 0 0 1 85.386 27.98 A 8.037 8.037 0 0 1 86.118 30.903 L 89.618 78.603 Z M 31.518 23.003 L 59.218 23.003 Q 58.818 17.403 54.818 13.503 Q 50.818 9.603 45.318 9.603 A 12.968 12.968 0 0 0 35.93 13.442 A 15.885 15.885 0 0 0 35.868 13.503 Q 31.918 17.403 31.518 23.003 Z M 0.518 86.103 L 90.218 86.103 L 90.618 91.203 A 8.427 8.427 0 0 1 90.655 91.989 A 6.932 6.932 0 0 1 88.818 96.753 A 6.76 6.76 0 0 1 83.914 99.093 A 8.445 8.445 0 0 1 83.518 99.103 L 7.118 99.103 A 6.653 6.653 0 0 1 2.184 97.037 A 8.327 8.327 0 0 1 1.918 96.753 A 7.27 7.27 0 0 1 0 91.753 A 8.818 8.818 0 0 1 0.018 91.203 L 0.518 86.103 Z" vector-effect="non-scaling-stroke"/></g></svg>