<svg width="105.5" height="85.804" viewBox="0 0 105.5 85.804" xmlns="http://www.w3.org/2000/svg"><g id="svgGroup" stroke-linecap="round" fill-rule="nonzero" font-size="9pt" stroke="#000" stroke-width="0" fill="#000" style="stroke:#000;stroke-width:0;fill:#000"><path d="M 4.3 30.203 A 24.918 24.918 0 0 0 5.805 30.954 A 20.782 20.782 0 0 0 14.1 32.903 Q 9.6 29.903 7 25.153 Q 4.4 20.403 4.4 14.903 Q 4.4 8.903 7.4 4.003 Q 15.5 14.003 27.15 19.953 Q 38.8 25.903 52 26.603 Q 51.4 24.103 51.4 21.703 A 25.336 25.336 0 0 1 51.402 21.422 A 20.885 20.885 0 0 1 57.75 6.353 Q 64.1 0.003 73.1 0.003 A 21.387 21.387 0 0 1 81.204 1.519 A 21.775 21.775 0 0 1 88.9 6.903 Q 96.3 5.403 102.6 1.603 Q 100.1 9.303 93.1 13.603 Q 99.5 12.803 105.5 10.203 Q 101.1 16.703 94.7 21.403 A 4.033 4.033 0 0 1 94.736 21.707 Q 94.785 22.27 94.796 23.434 A 78.218 78.218 0 0 1 94.8 24.203 Q 94.8 42.403 84.5 58.203 Q 73.5 75.303 54.9 82.103 Q 44.4 85.803 33.2 85.803 Q 15.1 85.803 0 76.003 A 27.348 27.348 0 0 0 1.075 76.127 Q 2.008 76.217 3.063 76.261 A 51.443 51.443 0 0 0 5.2 76.303 Q 20.2 76.303 32.1 67.103 Q 25.1 67.003 19.5 62.803 Q 13.9 58.603 11.9 52.103 A 31.767 31.767 0 0 0 13.193 52.261 A 26.893 26.893 0 0 0 15.9 52.403 A 18.811 18.811 0 0 0 16.53 52.392 Q 18.796 52.316 21.6 51.703 Q 14.1 50.103 9.2 44.153 Q 4.3 38.203 4.3 30.403 L 4.3 30.203 Z" vector-effect="non-scaling-stroke"/></g></svg>