<svg width="91.382" height="87.741" viewBox="0 0 91.382 87.741" xmlns="http://www.w3.org/2000/svg"><g id="svgGroup" stroke-linecap="round" fill-rule="evenodd" font-size="9pt" stroke="#000" stroke-width="0" fill="#000" style="stroke:#000;stroke-width:0;fill:#000"><path d="M 88.662 39.7 L 83.862 44.2 L 70.962 56.5 L 73.662 74.2 L 74.762 80.7 Q 75.462 85.3 73.062 87 A 4.054 4.054 0 0 1 70.732 87.74 Q 68.931 87.771 66.562 86.5 L 60.762 83.3 L 54.962 80.2 L 45.062 74.8 L 23.362 85.9 A 14.076 14.076 0 0 1 21.986 86.504 Q 18.77 87.702 16.862 86.25 A 4.089 4.089 0 0 1 15.416 84.085 Q 14.939 82.471 15.337 80.052 A 16.692 16.692 0 0 1 15.362 79.9 L 16.562 73.3 L 17.762 66.8 L 19.762 55.8 L 7.162 43.2 L 2.562 38.5 A 13.25 13.25 0 0 1 1.382 37.162 Q 0 35.345 0 33.707 A 3.824 3.824 0 0 1 0.212 32.45 A 4.14 4.14 0 0 1 2.097 30.224 Q 2.832 29.785 3.82 29.495 A 12.806 12.806 0 0 1 5.762 29.1 L 29.962 25.9 L 35.062 15.9 L 41.062 4.1 Q 43.162 0 46.112 0 Q 48.415 0 50.139 2.559 A 12.746 12.746 0 0 1 51.062 4.2 L 53.862 10.2 L 61.562 26.3 L 85.762 30.2 A 12.641 12.641 0 0 1 87.713 30.643 Q 90.562 31.556 91.212 33.7 Q 92.062 36.5 88.662 39.7 Z" vector-effect="non-scaling-stroke"/></g></svg>