<svg width="91.382" height="87.6" viewBox="0 0 91.382 87.6" xmlns="http://www.w3.org/2000/svg"><g id="svgGroup" stroke-linecap="round" fill-rule="nonzero" font-size="9pt" stroke="#000" stroke-width="0" fill="#000" style="stroke:#000;stroke-width:0;fill:#000"><path d="M 53.862 10.2 L 61.562 26.3 L 85.762 30.1 A 12.421 12.421 0 0 1 87.713 30.546 Q 90.562 31.468 91.212 33.65 Q 92.05 36.46 88.757 39.513 A 15.564 15.564 0 0 1 88.662 39.6 L 83.862 44.2 L 70.962 56.4 L 73.662 74.1 L 74.762 80.6 A 14.504 14.504 0 0 1 74.88 81.596 Q 75.067 83.902 74.354 85.392 A 4.517 4.517 0 0 1 74.162 85.75 A 3.591 3.591 0 0 1 71.584 87.524 A 5.316 5.316 0 0 1 70.662 87.6 A 6.065 6.065 0 0 1 69.117 87.385 Q 68.411 87.199 67.643 86.852 A 13.588 13.588 0 0 1 66.562 86.3 L 60.762 83.2 L 54.962 80 L 45.062 74.7 L 23.362 85.8 A 16.889 16.889 0 0 1 21.957 86.374 Q 20.469 86.9 19.362 86.9 A 4.748 4.748 0 0 1 17.927 86.695 A 3.576 3.576 0 0 1 15.862 85 Q 14.762 83.1 15.362 79.8 L 17.762 66.8 L 19.762 55.7 L 7.162 43.1 L 2.562 38.4 Q 0 35.915 0 33.672 A 3.934 3.934 0 0 1 0.212 32.4 A 4.206 4.206 0 0 1 2.162 30.097 Q 2.923 29.65 3.948 29.361 A 12.814 12.814 0 0 1 5.762 29 L 12.262 28.2 L 29.962 25.8 L 35.062 15.8 L 38.062 9.9 L 41.062 4.1 A 12.64 12.64 0 0 1 42.126 2.355 Q 42.751 1.508 43.435 0.966 A 4.149 4.149 0 0 1 46.062 0 Q 48.951 0 51.046 4.168 A 16.797 16.797 0 0 1 51.062 4.2 L 53.862 10.2 Z M 66.762 52.1 L 83.862 35.9 L 57.562 31.7 L 56.162 28.8 L 48.462 12.7 L 46.062 7.6 L 40.562 18.4 A 0.902 0.902 0 0 0 40.459 18.522 Q 40.408 18.595 40.384 18.667 A 0.419 0.419 0 0 0 40.362 18.8 L 35.362 28.6 L 33.862 31.4 L 13.062 34.1 L 7.462 34.9 L 26.262 53.7 L 25.662 56.8 L 23.762 67.5 L 23.662 67.9 L 22.462 74.4 L 21.362 80 L 45.162 67.9 L 68.662 80.6 L 67.762 75 L 64.962 57.4 L 64.462 54.3 L 66.762 52.1 Z" vector-effect="non-scaling-stroke"/></g></svg>