<svg width="86.034" height="86.04" viewBox="0 0 86.034 86.04" xmlns="http://www.w3.org/2000/svg"><g id="svgGroup" stroke-linecap="round" fill-rule="evenodd" font-size="9pt" stroke="#000" stroke-width="0" fill="#000" style="stroke:#000;stroke-width:0;fill:#000"><path d="M 4.6 0.411 L 27.4 0.011 A 5.788 5.788 0 0 1 27.761 0 Q 29.024 0 30.551 0.527 A 13.477 13.477 0 0 1 31.05 0.711 A 11.898 11.898 0 0 1 32.575 1.427 Q 33.588 1.999 34.3 2.711 L 85.2 53.611 A 5.105 5.105 0 0 1 85.565 54.054 Q 86.034 54.699 86.034 55.23 A 1.12 1.12 0 0 1 85.95 55.661 Q 85.619 56.464 84.173 56.509 A 5.644 5.644 0 0 1 84 56.511 L 61.1 57.011 A 3.817 3.817 0 0 0 58.378 58.135 A 5.011 5.011 0 0 0 58.3 58.211 Q 57.1 59.411 57.1 61.111 L 56.6 83.911 Q 56.6 85.611 55.75 85.961 A 1.045 1.045 0 0 1 55.348 86.04 Q 54.719 86.04 53.928 85.328 A 6.045 6.045 0 0 1 53.7 85.111 L 2.8 34.211 A 9.244 9.244 0 0 1 0.001 27.536 A 11.349 11.349 0 0 1 0 27.411 L 0.5 4.511 A 3.817 3.817 0 0 1 1.624 1.789 A 5.011 5.011 0 0 1 1.7 1.711 Q 2.9 0.511 4.6 0.411 Z M 20.4 20.311 A 5.975 5.975 0 0 0 22.2 15.992 A 7.455 7.455 0 0 0 22.2 15.911 Q 22.2 13.311 20.4 11.411 Q 18.5 9.611 15.9 9.611 A 6.192 6.192 0 0 0 13.228 10.181 A 6.135 6.135 0 0 0 11.5 11.411 A 6.465 6.465 0 0 0 10.018 13.626 A 6.201 6.201 0 0 0 9.6 15.911 A 5.811 5.811 0 0 0 11.369 20.184 A 7.14 7.14 0 0 0 11.5 20.311 Q 13.3 22.211 15.9 22.211 A 6.138 6.138 0 0 0 20.34 20.37 A 7.796 7.796 0 0 0 20.4 20.311 Z" vector-effect="non-scaling-stroke"/></g></svg>