<svg width="95.304" height="88.602" viewBox="0 0 95.304 88.602" xmlns="http://www.w3.org/2000/svg"><g id="svgGroup" stroke-linecap="round" fill-rule="evenodd" font-size="9pt" stroke="#000" stroke-width="0" fill="#000" style="stroke:#000;stroke-width:0;fill:#000"><path d="M 18.202 0.002 L 77.202 0.002 A 17.336 17.336 0 0 1 89.836 5.186 A 21.141 21.141 0 0 1 90.002 5.352 A 17.596 17.596 0 0 1 95.301 18.085 A 21.148 21.148 0 0 1 95.302 18.202 L 95.302 59.002 A 17.594 17.594 0 0 1 90.084 71.768 A 21.411 21.411 0 0 1 90.002 71.852 A 17.339 17.339 0 0 1 77.436 77.201 A 20.887 20.887 0 0 1 77.202 77.202 L 57.402 77.202 L 50.302 87.102 A 4.521 4.521 0 0 1 49.575 87.893 A 2.839 2.839 0 0 1 47.702 88.602 Q 46.202 88.602 45.002 87.102 L 37.902 77.202 L 18.202 77.202 Q 10.702 77.202 5.352 71.852 A 17.506 17.506 0 0 1 0.003 59.236 A 20.891 20.891 0 0 1 0.002 59.002 L 0.002 18.202 Q 0.002 10.702 5.352 5.352 A 17.506 17.506 0 0 1 17.968 0.003 A 20.891 20.891 0 0 1 18.202 0.002 Z M 86.302 59.002 L 86.302 18.202 A 8.824 8.824 0 0 0 83.672 11.823 A 10.966 10.966 0 0 0 83.652 11.802 A 8.682 8.682 0 0 0 77.35 9.103 A 10.602 10.602 0 0 0 77.202 9.102 L 18.202 9.102 A 8.685 8.685 0 0 0 11.856 11.698 A 10.463 10.463 0 0 0 11.752 11.802 A 9.108 9.108 0 0 0 9.573 15.258 A 9.059 9.059 0 0 0 9.102 18.202 L 9.102 59.002 A 8.824 8.824 0 0 0 11.731 65.381 A 10.966 10.966 0 0 0 11.752 65.402 A 8.682 8.682 0 0 0 18.054 68.101 A 10.602 10.602 0 0 0 18.202 68.102 L 37.402 68.102 Q 38.808 68.102 39.584 68.266 A 2.873 2.873 0 0 1 40.052 68.402 Q 40.802 68.702 42.002 70.002 L 47.702 77.202 Q 50.587 73.328 52.52 70.949 A 75.979 75.979 0 0 1 53.302 70.002 Q 54.225 69.002 54.882 68.594 A 2.393 2.393 0 0 1 55.252 68.402 Q 56.002 68.102 58.002 68.102 L 77.202 68.102 A 8.685 8.685 0 0 0 83.548 65.507 A 10.463 10.463 0 0 0 83.652 65.402 A 9.108 9.108 0 0 0 85.83 61.946 A 9.059 9.059 0 0 0 86.302 59.002 Z M 77.202 53.302 L 77.202 51.102 A 2.517 2.517 0 0 0 77.073 50.281 A 2.143 2.143 0 0 0 76.552 49.452 A 2.195 2.195 0 0 0 75.086 48.808 A 2.933 2.933 0 0 0 74.902 48.802 L 20.402 48.802 A 2.112 2.112 0 0 0 18.872 49.432 A 2.638 2.638 0 0 0 18.852 49.452 A 2.195 2.195 0 0 0 18.207 50.918 A 2.933 2.933 0 0 0 18.202 51.102 L 18.202 53.302 A 2.517 2.517 0 0 0 18.331 54.123 A 2.143 2.143 0 0 0 18.852 54.952 A 2.189 2.189 0 0 0 19.662 55.478 A 2.169 2.169 0 0 0 20.402 55.602 L 74.902 55.602 A 2.517 2.517 0 0 0 75.723 55.473 A 2.143 2.143 0 0 0 76.552 54.952 A 2.195 2.195 0 0 0 77.196 53.486 A 2.933 2.933 0 0 0 77.202 53.302 Z M 77.202 39.702 L 77.202 37.502 A 2.517 2.517 0 0 0 77.073 36.681 A 2.143 2.143 0 0 0 76.552 35.852 A 2.195 2.195 0 0 0 75.086 35.208 A 2.933 2.933 0 0 0 74.902 35.202 L 20.402 35.202 A 2.112 2.112 0 0 0 18.872 35.832 A 2.638 2.638 0 0 0 18.852 35.852 A 2.195 2.195 0 0 0 18.207 37.318 A 2.933 2.933 0 0 0 18.202 37.502 L 18.202 39.702 A 2.517 2.517 0 0 0 18.331 40.523 A 2.143 2.143 0 0 0 18.852 41.352 A 2.189 2.189 0 0 0 19.662 41.878 A 2.169 2.169 0 0 0 20.402 42.002 L 74.902 42.002 A 2.517 2.517 0 0 0 75.723 41.873 A 2.143 2.143 0 0 0 76.552 41.352 A 2.195 2.195 0 0 0 77.196 39.886 A 2.933 2.933 0 0 0 77.202 39.702 Z M 77.202 26.102 L 77.202 23.802 A 2.112 2.112 0 0 0 76.572 22.272 A 2.638 2.638 0 0 0 76.552 22.252 A 2.195 2.195 0 0 0 75.086 21.608 A 2.933 2.933 0 0 0 74.902 21.602 L 20.402 21.602 A 2.112 2.112 0 0 0 18.872 22.232 A 2.638 2.638 0 0 0 18.852 22.252 A 2.189 2.189 0 0 0 18.326 23.062 A 2.169 2.169 0 0 0 18.202 23.802 L 18.202 26.102 A 2.272 2.272 0 0 0 18.807 27.653 A 2.932 2.932 0 0 0 18.852 27.702 A 2.256 2.256 0 0 0 19.492 28.193 A 2 2 0 0 0 20.402 28.402 L 74.902 28.402 A 2.336 2.336 0 0 0 75.762 28.248 A 2.134 2.134 0 0 0 76.552 27.702 Q 77.202 27.002 77.202 26.102 Z" vector-effect="non-scaling-stroke"/></g></svg>