<svg width="82.001" height="93.602" viewBox="0 0 82.001 93.602" xmlns="http://www.w3.org/2000/svg"><g id="svgGroup" stroke-linecap="round" fill-rule="evenodd" font-size="9pt" stroke="#000" stroke-width="0" fill="#000" style="stroke:#000;stroke-width:0;fill:#000"><path d="M 72.9 26.9 L 72.9 31.9 L 77.3 31.9 A 5.067 5.067 0 0 1 79.072 32.2 A 4.52 4.52 0 0 1 80.65 33.2 Q 82 34.5 82 36.4 A 4.337 4.337 0 0 1 80.687 39.565 A 5.449 5.449 0 0 1 80.6 39.65 Q 79.2 41 77.3 41 L 72.9 41 L 72.9 83.1 A 10.084 10.084 0 0 1 69.896 90.403 A 12.555 12.555 0 0 1 69.8 90.5 A 10.203 10.203 0 0 1 62.438 93.6 A 12.405 12.405 0 0 1 62.3 93.6 L 19.7 93.6 A 10.205 10.205 0 0 1 12.298 90.596 A 12.27 12.27 0 0 1 12.2 90.5 A 10.407 10.407 0 0 1 9.655 86.522 A 10.403 10.403 0 0 1 9.1 83.1 L 9.1 41 L 4.7 41 Q 2.8 41 1.4 39.65 A 4.547 4.547 0 0 1 0.308 38.061 A 4.433 4.433 0 0 1 0 36.4 A 4.389 4.389 0 0 1 0.439 34.428 A 4.423 4.423 0 0 1 1.35 33.2 A 4.604 4.604 0 0 1 4.512 31.903 A 6.015 6.015 0 0 1 4.7 31.9 L 9.1 31.9 L 9.1 26.9 L 72.9 26.9 Z M 59.2 4.5 L 59.2 12.1 L 66.9 12.1 A 10.099 10.099 0 0 1 74.227 15.077 A 12.055 12.055 0 0 1 74.25 15.1 A 10.062 10.062 0 0 1 76.717 18.855 A 10.018 10.018 0 0 1 77.3 22.3 L 4.4 22.3 A 9.719 9.719 0 0 1 7.332 15.218 A 12.118 12.118 0 0 1 7.45 15.1 Q 10.5 12.1 14.8 12.1 L 22.8 12.1 L 22.8 4.5 A 4.571 4.571 0 0 1 23.167 2.652 A 4.385 4.385 0 0 1 24.1 1.3 Q 25.4 0 27.3 0 L 54.7 0 A 4.571 4.571 0 0 1 56.549 0.367 A 4.385 4.385 0 0 1 57.9 1.3 Q 59.2 2.6 59.2 4.5 Z M 44 84.2 L 44 39.7 L 38 39.7 L 38 84.2 L 44 84.2 Z M 26.9 84.2 L 26.9 39.7 L 21 39.7 L 21 84.2 L 26.9 84.2 Z M 61 84.2 L 61 39.7 L 55.1 39.7 L 55.1 84.2 L 61 84.2 Z M 51.1 12.1 L 51.1 6.3 L 30.9 6.3 L 30.9 12.1 L 51.1 12.1 Z" vector-effect="non-scaling-stroke"/></g></svg>