<svg width="76.798" height="59.2" viewBox="0 0 76.798 59.2" xmlns="http://www.w3.org/2000/svg"><g id="svgGroup" stroke-linecap="round" fill-rule="nonzero" font-size="9pt" stroke="#000" stroke-width="0" fill="#000" style="stroke:#000;stroke-width:0;fill:#000"><path d="M 69.702 0 A 13.783 13.783 0 0 1 71.221 0.08 Q 72.413 0.212 73.358 0.565 A 5.14 5.14 0 0 1 76.202 2.95 Q 77.488 5.321 75.996 8.436 A 13.334 13.334 0 0 1 75.102 10 L 45.102 55 Q 44.14 56.444 43.047 57.392 A 6.918 6.918 0 0 1 38.402 59.2 Q 34.502 59.2 31.802 55 L 1.802 10 Q 0 7.361 0 5.199 A 4.763 4.763 0 0 1 0.552 2.95 Q 2.102 0 7.102 0 L 69.702 0 Z" vector-effect="non-scaling-stroke"/></g></svg>