<svg width="100.003" height="100.003" viewBox="0 0 100.003 100.003" xmlns="http://www.w3.org/2000/svg"><g id="svgGroup" stroke-linecap="round" fill-rule="nonzero" font-size="9pt" stroke="#000" stroke-width="0" fill="#000" style="stroke:#000;stroke-width:0;fill:#000"><path d="M 24.901 6.701 Q 36.401 0.001 50.001 0.001 Q 63.601 0.001 75.101 6.701 Q 86.601 13.401 93.301 24.901 Q 100.001 36.401 100.001 50.001 Q 100.001 63.601 93.301 75.101 Q 86.601 86.601 75.101 93.301 Q 63.601 100.001 50.001 100.001 Q 36.401 100.001 24.901 93.301 Q 13.401 86.601 6.701 75.101 Q 0.001 63.601 0.001 50.001 Q 0.001 36.401 6.701 24.901 Q 13.401 13.401 24.901 6.701 Z M 25.701 71.001 L 74.301 71.001 A 9.308 9.308 0 0 0 75.998 70.858 Q 78.211 70.447 79.101 68.851 Q 80.109 67.046 78.86 64.641 A 10.049 10.049 0 0 0 78.301 63.701 L 54.701 27.601 Q 52.701 24.601 49.951 24.601 A 4.743 4.743 0 0 0 46.657 25.94 Q 45.932 26.605 45.301 27.601 L 21.701 63.701 A 9.689 9.689 0 0 0 21.042 64.841 Q 20.451 66.059 20.451 67.119 A 3.497 3.497 0 0 0 20.901 68.851 A 3.818 3.818 0 0 0 22.971 70.575 Q 23.676 70.842 24.566 70.941 A 10.195 10.195 0 0 0 25.701 71.001 Z" vector-effect="non-scaling-stroke"/></g></svg>