<svg width="100.003" height="100.003" viewBox="0 0 100.003 100.003" xmlns="http://www.w3.org/2000/svg"><g id="svgGroup" stroke-linecap="round" fill-rule="evenodd" font-size="9pt" stroke="#000" stroke-width="0" fill="#000" style="stroke:#000;stroke-width:0;fill:#000"><path d="M 24.901 6.701 Q 36.401 0.001 50.001 0.001 Q 63.601 0.001 75.101 6.701 Q 86.601 13.401 93.301 24.901 Q 100.001 36.401 100.001 50.001 Q 100.001 63.601 93.301 75.101 Q 86.601 86.601 75.101 93.301 Q 63.601 100.001 50.001 100.001 Q 36.401 100.001 24.901 93.301 Q 13.401 86.601 6.701 75.101 Q 0.001 63.601 0.001 50.001 Q 0.001 36.401 6.701 24.901 Q 13.401 13.401 24.901 6.701 Z M 80.101 34.601 L 80.101 29.401 Q 80.101 28.001 79.051 27.001 Q 78.001 26.001 76.601 26.001 L 23.401 26.001 A 3.214 3.214 0 0 0 21.987 26.309 A 3.212 3.212 0 0 0 21.051 27.001 Q 20.101 28.001 20.101 29.401 L 20.101 34.601 Q 20.101 36.001 21.051 37.001 A 3.1 3.1 0 0 0 23.304 38 A 3.855 3.855 0 0 0 23.401 38.001 L 46.301 38.001 A 6.299 6.299 0 0 0 46.033 38.289 Q 45.759 38.6 45.416 39.05 A 23.44 23.44 0 0 0 45.301 39.201 L 24.701 70.701 A 9.689 9.689 0 0 0 24.042 71.841 Q 23.451 73.059 23.451 74.119 A 3.497 3.497 0 0 0 23.901 75.851 A 3.818 3.818 0 0 0 25.971 77.575 Q 26.676 77.842 27.566 77.941 A 10.195 10.195 0 0 0 28.701 78.001 L 71.301 78.001 A 9.308 9.308 0 0 0 72.998 77.858 Q 75.211 77.447 76.101 75.851 Q 77.109 74.046 75.86 71.641 A 10.049 10.049 0 0 0 75.301 70.701 L 54.701 39.201 L 53.801 38.001 L 76.601 38.001 Q 78.001 38.001 79.051 37.001 Q 80.101 36.001 80.101 34.601 Z" vector-effect="non-scaling-stroke"/></g></svg>