<svg width="74.001" height="74.001" viewBox="0 0 74.001 74.001" xmlns="http://www.w3.org/2000/svg"><g id="svgGroup" stroke-linecap="round" fill-rule="evenodd" font-size="9pt" stroke="#000" stroke-width="0" fill="#000" style="stroke:#000;stroke-width:0;fill:#000"><path d="M 55.601 72 L 37.001 53.3 L 18.301 72 A 6.252 6.252 0 0 1 13.75 73.998 A 7.982 7.982 0 0 1 13.551 74 A 6.598 6.598 0 0 1 8.763 72.062 A 7.884 7.884 0 0 1 8.701 72 L 2.001 65.3 A 6.303 6.303 0 0 1 0.003 60.703 A 8.26 8.26 0 0 1 0.001 60.5 A 6.925 6.925 0 0 1 0.616 57.56 A 6.795 6.795 0 0 1 2.001 55.6 L 20.601 37 L 2.001 18.3 A 6.303 6.303 0 0 1 0.003 13.703 A 8.26 8.26 0 0 1 0.001 13.5 A 6.89 6.89 0 0 1 0.44 11.001 A 6.255 6.255 0 0 1 2.001 8.7 L 8.701 2 A 6.303 6.303 0 0 1 13.298 0.003 A 8.26 8.26 0 0 1 13.501 0 A 6.89 6.89 0 0 1 16 0.44 A 6.255 6.255 0 0 1 18.301 2 L 37.001 20.6 L 55.601 2 A 6.651 6.651 0 0 1 60.41 0.001 A 8.347 8.347 0 0 1 60.501 0 A 6.89 6.89 0 0 1 63 0.44 A 6.255 6.255 0 0 1 65.301 2 L 72.001 8.7 A 6.303 6.303 0 0 1 73.998 13.298 A 8.26 8.26 0 0 1 74.001 13.5 A 6.89 6.89 0 0 1 73.561 15.999 A 6.255 6.255 0 0 1 72.001 18.3 L 53.401 37 L 72.001 55.6 A 6.651 6.651 0 0 1 74 60.41 A 8.347 8.347 0 0 1 74.001 60.5 A 6.89 6.89 0 0 1 73.561 62.999 A 6.255 6.255 0 0 1 72.001 65.3 L 65.301 72 A 6.303 6.303 0 0 1 60.703 73.998 A 8.26 8.26 0 0 1 60.501 74 A 6.925 6.925 0 0 1 57.56 73.385 A 6.795 6.795 0 0 1 55.601 72 Z" vector-effect="non-scaling-stroke"/></g></svg>