<svg width="117.404" height="95.407" viewBox="0 0 117.404 95.407" xmlns="http://www.w3.org/2000/svg"><g id="svgGroup" stroke-linecap="round" fill-rule="nonzero" font-size="9pt" stroke="#000" stroke-width="0" fill="#000" style="stroke:#000;stroke-width:0;fill:#000"><path d="M 56.404 64.606 L 56.404 69.606 Q 53.104 71.506 49.604 72.506 A 35.148 35.148 0 0 1 54.681 80.048 Q 56.619 83.844 58.097 88.546 A 79.52 79.52 0 0 1 59.904 95.406 L 16.304 95.406 A 75.312 75.312 0 0 1 18.868 86.283 Q 20.479 81.748 22.562 78.143 A 33.472 33.472 0 0 1 26.604 72.506 Q 14.904 68.906 7.454 59.156 Q 0.004 49.406 0.004 37.106 A 35.201 35.201 0 0 1 10.637 11.367 A 43.39 43.39 0 0 1 11.154 10.856 Q 22.304 0.006 38.104 0.006 Q 53.904 0.006 65.054 10.856 A 35.983 35.983 0 0 1 74.434 25.557 A 36.938 36.938 0 0 1 76.204 37.106 Q 76.204 45.806 72.304 53.406 L 67.604 53.406 A 10.761 10.761 0 0 0 59.807 56.604 A 13.296 13.296 0 0 0 59.704 56.706 Q 56.404 60.006 56.404 64.606 Z M 56.104 45.306 L 52.404 44.106 L 51.904 44.006 A 1.825 1.825 0 0 0 51.362 44.081 Q 50.792 44.258 50.557 44.853 A 1.907 1.907 0 0 0 50.504 45.006 L 50.404 45.306 A 2.13 2.13 0 0 1 50.336 45.43 Q 50.234 45.604 50.054 45.856 A 79.738 79.738 0 0 0 49.852 46.14 Q 49.763 46.267 49.663 46.408 A 157.752 157.752 0 0 0 49.454 46.706 Q 49.104 47.206 48.604 47.756 A 8.666 8.666 0 0 1 47.997 48.358 A 11.365 11.365 0 0 1 47.404 48.856 A 7.769 7.769 0 0 1 46.537 49.443 A 9.993 9.993 0 0 1 45.754 49.856 A 22.588 22.588 0 0 1 44.377 50.451 A 26.533 26.533 0 0 1 43.704 50.706 Q 42.638 51.094 41.244 51.293 A 17.255 17.255 0 0 1 41.154 51.306 Q 39.704 51.506 38.104 51.506 Q 35.304 51.506 33.004 50.856 A 19.712 19.712 0 0 1 31.669 50.43 Q 31.002 50.189 30.455 49.925 A 7.843 7.843 0 0 1 29.454 49.356 Q 28.204 48.506 27.254 47.406 A 24.192 24.192 0 0 1 26.835 46.908 Q 26.243 46.185 26.054 45.806 Q 25.848 45.394 25.744 45.118 A 3.063 3.063 0 0 1 25.704 45.006 Q 25.404 44.006 24.304 44.006 L 20.104 45.306 Q 19.636 45.507 19.391 45.797 A 1.129 1.129 0 0 0 19.204 46.106 A 1.883 1.883 0 0 0 19.084 46.403 Q 18.955 46.833 19.104 47.206 Q 19.404 48.006 19.704 48.606 Q 19.985 49.167 21.36 50.999 A 100.196 100.196 0 0 0 21.554 51.256 Q 23.104 53.306 24.954 54.656 A 12.387 12.387 0 0 0 26.417 55.561 Q 27.992 56.403 30.281 57.181 A 40.543 40.543 0 0 0 30.354 57.206 A 22.915 22.915 0 0 0 35.793 58.311 A 27.601 27.601 0 0 0 38.104 58.406 A 26.721 26.721 0 0 0 42.785 58.011 A 21.988 21.988 0 0 0 45.804 57.256 Q 48.263 56.448 49.957 55.467 A 11.926 11.926 0 0 0 51.254 54.606 Q 53.204 53.106 54.604 51.356 Q 55.713 49.969 56.226 49.054 A 5.767 5.767 0 0 0 56.454 48.606 Q 56.879 47.662 56.992 47.252 A 1.998 1.998 0 0 0 57.004 47.206 A 1.028 1.028 0 0 0 57.144 46.821 Q 57.176 46.601 57.106 46.364 A 1.546 1.546 0 0 0 57.004 46.106 Q 56.804 45.606 56.104 45.306 Z M 27.404 18.306 L 23.104 18.306 A 2.218 2.218 0 0 0 22.314 18.442 A 1.993 1.993 0 0 0 21.604 18.906 A 2.024 2.024 0 0 0 21.005 20.348 A 2.657 2.657 0 0 0 21.004 20.406 L 21.004 31.106 A 2.218 2.218 0 0 0 21.14 31.896 A 1.993 1.993 0 0 0 21.604 32.606 A 2.024 2.024 0 0 0 23.046 33.205 A 2.657 2.657 0 0 0 23.104 33.206 L 27.404 33.206 A 2.218 2.218 0 0 0 28.194 33.07 A 1.993 1.993 0 0 0 28.904 32.606 A 2.024 2.024 0 0 0 29.503 31.164 A 2.657 2.657 0 0 0 29.504 31.106 L 29.504 20.406 A 2.218 2.218 0 0 0 29.368 19.616 A 1.993 1.993 0 0 0 28.904 18.906 A 2.024 2.024 0 0 0 27.462 18.307 A 2.657 2.657 0 0 0 27.404 18.306 Z M 53.104 18.306 L 48.804 18.306 A 2.218 2.218 0 0 0 48.014 18.442 A 1.993 1.993 0 0 0 47.304 18.906 A 2.024 2.024 0 0 0 46.705 20.348 A 2.657 2.657 0 0 0 46.704 20.406 L 46.704 31.106 A 2.218 2.218 0 0 0 46.84 31.896 A 1.993 1.993 0 0 0 47.304 32.606 A 2.024 2.024 0 0 0 48.746 33.205 A 2.657 2.657 0 0 0 48.804 33.206 L 53.104 33.206 A 2.218 2.218 0 0 0 53.894 33.07 A 1.993 1.993 0 0 0 54.604 32.606 A 2.024 2.024 0 0 0 55.203 31.164 A 2.657 2.657 0 0 0 55.204 31.106 L 55.204 20.406 A 2.218 2.218 0 0 0 55.068 19.616 A 1.993 1.993 0 0 0 54.604 18.906 A 2.024 2.024 0 0 0 53.162 18.307 A 2.657 2.657 0 0 0 53.104 18.306 Z M 97.404 43.506 L 97.404 60.406 L 113.304 60.406 A 3.946 3.946 0 0 1 116.166 61.569 A 4.757 4.757 0 0 1 116.204 61.606 Q 117.404 62.806 117.404 64.506 L 117.404 70.306 A 3.946 3.946 0 0 1 116.241 73.168 A 4.757 4.757 0 0 1 116.204 73.206 Q 115.004 74.406 113.304 74.406 L 97.404 74.406 L 97.404 91.306 A 3.946 3.946 0 0 1 96.241 94.168 A 4.757 4.757 0 0 1 96.204 94.206 Q 95.004 95.406 93.304 95.406 L 87.604 95.406 A 3.946 3.946 0 0 1 84.742 94.243 A 4.757 4.757 0 0 1 84.704 94.206 Q 83.504 93.006 83.504 91.306 L 83.504 74.406 L 67.604 74.406 Q 65.904 74.406 64.654 73.206 A 4.019 4.019 0 0 1 63.661 71.744 A 3.973 3.973 0 0 1 63.404 70.306 L 63.404 64.506 A 3.86 3.86 0 0 1 64.577 61.682 A 4.824 4.824 0 0 1 64.654 61.606 Q 65.904 60.406 67.604 60.406 L 83.504 60.406 L 83.504 43.506 A 3.946 3.946 0 0 1 84.667 40.644 A 4.757 4.757 0 0 1 84.704 40.606 Q 85.904 39.406 87.604 39.406 L 93.304 39.406 A 3.946 3.946 0 0 1 96.166 40.569 A 4.757 4.757 0 0 1 96.204 40.606 Q 97.404 41.806 97.404 43.506 Z" vector-effect="non-scaling-stroke"/></g></svg>